<?xml version="1.0" encoding="UTF-8"?>
<svg version="1.1" xmlns="http://www.w3.org/2000/svg" width="1280" height="401">
<path d="M0 0 C18.96863434 -0.0703875 37.93724181 -0.12313278 56.90598011 -0.15543652 C65.71544092 -0.17084092 74.52482012 -0.19180594 83.33422852 -0.22631836 C91.02130004 -0.25641922 98.7083124 -0.27562156 106.39544123 -0.28226548 C110.45774622 -0.28614309 114.51988209 -0.29511812 118.58213234 -0.31719017 C148.01544925 -0.47063447 178.7810665 -0.27467395 201.3125 21.6875 C215.09783011 35.78673596 219.3125 52.49468914 219.3125 71.640625 C218.9788624 96.93642089 205.49427528 117.5319924 188 135 C164.5472 156 164.5472 156 157 156 C157 156.66 157 157.32 157 158 C158.53140625 158.35578125 158.53140625 158.35578125 160.09375 158.71875 C164.11671438 159.87626289 167.23751686 161.92261862 170.5 164.5 C171.06460937 164.94287354 171.62921875 165.38574707 172.2109375 165.84204102 C184.09302746 175.51848381 190.139591 190.02925847 192 205 C194.85524091 233.86409236 189.31190004 259.03846968 171 282 C147.9298385 309.82312663 115.68052865 324.03058648 80.20031166 327.80609846 C73.88843805 328.36232967 67.5510818 328.25887378 61.22070312 328.22705078 C59.61245226 328.2264848 58.00420088 328.22680686 56.39595032 328.22793579 C52.08500501 328.22850302 47.77417398 328.2168524 43.46325493 328.20278788 C38.9376269 328.19017389 34.41199544 328.1891017 29.88635254 328.18673706 C21.34098757 328.18055333 12.79567457 328.16418515 4.25033236 328.14403808 C-5.48866106 328.12158162 -15.22765712 328.11066129 -24.96667004 328.10064721 C-44.97780889 328.0798157 -64.98890115 328.04470102 -85 328 C-82.30735088 315.50495967 -79.3125992 303.11623102 -76.09765625 290.74609375 C-75.62238382 288.907996 -75.1473804 287.06982867 -74.67262268 285.2315979 C-73.40286944 280.3183573 -72.12935832 275.40609827 -70.85504913 270.49403763 C-69.51565109 265.32852758 -68.17967115 260.1621335 -66.84326172 254.99584961 C-64.37093321 245.44052389 -61.8954337 235.8860229 -59.41862106 226.33185863 C-57.1186832 217.4594258 -54.82179849 208.58620477 -52.52555847 199.71281433 C-50.44418437 191.66979476 -48.36141324 183.62713708 -46.2782402 175.58458328 C-45.84782953 173.92281849 -45.41746196 172.26104254 -44.98714066 170.59925461 C-38.71654712 146.38400134 -32.38044213 122.18654264 -26 98 C-33.92 98 -41.84 98 -50 98 C-48.58032432 93.74097296 -47.2780472 90.35130206 -45.234375 86.45703125 C-44.68144775 85.39758301 -44.12852051 84.33813477 -43.55883789 83.24658203 C-42.96192139 82.11333496 -42.36500488 80.98008789 -41.75 79.8125 C-41.11989007 78.6081566 -40.49026029 77.40356188 -39.86108398 76.19873047 C-38.55557754 73.69970122 -37.24802439 71.2017596 -35.93896484 68.70458984 C-32.96156751 63.02103995 -30.01336129 57.32235763 -27.0625 51.625 C-26.4950708 50.5311499 -25.9276416 49.4372998 -25.34301758 48.31030273 C-22.20860548 42.26778196 -19.08113148 36.22174512 -15.9609375 30.171875 C-14.94788407 28.20885222 -13.93474745 26.24587239 -12.92160034 24.28289795 C-11.96696714 22.43212863 -11.01385587 20.58058119 -10.06079102 18.72900391 C-9.47225342 17.58866699 -8.88371582 16.44833008 -8.27734375 15.2734375 C-7.76421631 14.27747559 -7.25108887 13.28151367 -6.72241211 12.25537109 C-5.30867736 9.5834024 -3.86278637 6.93737067 -2.39234924 4.29653931 C-1.94382882 3.49060144 -1.4953084 2.68466358 -1.03319645 1.85430336 C-0.69224162 1.24238325 -0.35128679 0.63046314 0 0 Z M71 87 C68.88567793 91.66738686 67.90316599 96.47381801 66.8359375 101.45703125 C66.63900299 102.35999435 66.44206848 103.26295746 66.23916626 104.19328308 C65.61371601 107.06549049 64.99427952 109.93895648 64.375 112.8125 C63.95091747 114.76506015 63.5264427 116.71753515 63.1015625 118.66992188 C62.06316146 123.44564004 61.03015037 128.22249562 60 133 C64.05269518 133.05017623 68.10526519 133.08607843 72.15820312 133.10986328 C73.53128212 133.11979919 74.90434067 133.13335261 76.27734375 133.15087891 C95.901064 133.44307796 95.901064 133.44307796 112.75 124.5625 C113.86375 123.2940625 113.86375 123.2940625 115 122 C115.70125 121.278125 116.4025 120.55625 117.125 119.8125 C121.31541212 113.52688183 123.23900842 105.50365776 122 98 C120.60900861 93.95276517 118.72116889 91.46032057 115.0625 89.125 C109.55562261 87.10206545 104.46470642 86.86285065 98.63671875 86.90234375 C97.44874443 86.90446617 97.44874443 86.90446617 96.23677063 86.90663147 C93.72030781 86.91220543 91.20393569 86.92475307 88.6875 86.9375 C86.97591275 86.94251837 85.26432409 86.94708069 83.55273438 86.95117188 C79.36845492 86.96216632 75.18424281 86.97941293 71 87 Z M45 191 C39.82341109 208.54550251 35.35941817 226.23761894 31 244 C36.74335834 244.09990454 42.48619565 244.17195122 48.23022461 244.21972656 C50.17855659 244.23967151 52.12683006 244.26683757 54.07495117 244.30175781 C70.05937171 244.5808183 84.53408733 243.98287055 96.77734375 232.3046875 C101.87345589 226.74755788 104.60768934 220.5846727 105 213 C104.50359329 205.58073211 101.48853002 200.90086923 96 196 C89.31852758 191.09174213 82.94618808 190.85264619 74.98046875 190.90234375 C74.12189774 190.9037587 73.26332672 190.90517365 72.3787384 190.90663147 C69.64828951 190.91220943 66.91792393 190.92475786 64.1875 190.9375 C62.3313814 190.94251785 60.4752615 190.94708026 58.61914062 190.95117188 C54.0793952 190.96217164 49.5397117 190.97942107 45 191 Z " fill="#005FAF" transform="translate(539,34)"/>
<path d="M0 0 C1.71950017 0.00358253 1.71950017 0.00358253 3.47373772 0.00723743 C4.78902458 0.00029362 6.10431145 -0.0066502 7.45945549 -0.01380444 C8.9204268 -0.00124246 10.3813948 0.01171014 11.84235954 0.02501392 C13.37810731 0.02450525 14.91385535 0.02225038 16.44959831 0.01837635 C20.62308247 0.0129489 24.7961241 0.03238869 28.96952868 0.05647731 C33.33059808 0.07773631 37.69166525 0.07717693 42.05277824 0.07916737 C49.37496903 0.08561841 56.69699297 0.10688084 64.01911736 0.13829517 C73.42976328 0.1786157 82.84030052 0.19598585 92.25102234 0.20560455 C100.32830587 0.21389411 108.4055662 0.23113472 116.48282957 0.25064206 C119.08613268 0.25671733 121.68943667 0.26185581 124.29274178 0.26699352 C128.37535294 0.27575339 132.45790976 0.29003961 136.54048729 0.30870342 C138.04296714 0.31484354 139.54545499 0.31928387 141.04794502 0.32194614 C143.09028091 0.32590596 145.13260035 0.33665538 147.17490959 0.34781361 C148.89327868 0.35422383 148.89327868 0.35422383 150.6463623 0.36076355 C153.19734001 0.49498463 153.19734001 0.49498463 154.19734001 1.49498463 C154.3593088 3.08648458 154.45449935 4.68482073 154.52341366 6.28305626 C154.57068885 7.32571539 154.61796404 8.36837453 154.66667181 9.4426294 C154.7143413 10.60230302 154.76201079 11.76197663 154.8111248 12.95679188 C154.86506541 14.17802909 154.91900601 15.3992663 154.97458118 16.6575107 C155.12402377 20.06346161 155.26913887 23.46954837 155.4124645 26.87575901 C155.56785839 30.54441328 155.72872531 34.212828 155.88889885 37.88127613 C156.20233373 45.08065502 156.5105562 52.2802482 156.81693644 59.47993041 C157.06649093 65.3421875 157.31787945 71.20436325 157.57058334 77.0664854 C157.62449965 78.31728983 157.62449965 78.31728983 157.67950518 79.59336303 C157.75254086 81.28755511 157.82558034 82.98174702 157.89862358 84.67593878 C158.58471668 100.59468624 159.26487967 116.51368293 159.94307714 132.43276846 C160.52335111 146.04998569 161.10879722 159.66697241 161.69807243 173.28380299 C162.38292343 189.10921304 163.06435749 204.93476448 163.74058193 220.76054567 C163.81302064 222.4556044 163.88546412 224.15066293 163.95791245 225.84572124 C164.01137011 227.09650124 164.01137011 227.09650124 164.06590774 228.37254952 C164.31547416 234.20633798 164.56743033 240.04002031 164.82035828 245.8736639 C165.12994792 253.01557801 165.43577826 260.15764196 165.73706049 267.29991151 C165.89046147 270.93431095 166.04538349 274.56862583 166.20491791 278.20276165 C166.37912621 282.17246498 166.54511656 286.14247441 166.71053886 290.1125536 C166.76043907 291.22092062 166.81033928 292.32928764 166.86175162 293.47124153 C167.33553003 305.16668956 167.19734001 316.75374961 167.19734001 328.49498463 C132.54734001 328.49498463 97.89734001 328.49498463 62.19734001 328.49498463 C62.19734001 310.01498463 62.19734001 291.53498463 62.19734001 272.49498463 C39.09734001 272.82498463 15.99734001 273.15498463 -7.80265999 273.49498463 C-14.24995348 288.97638791 -14.24995348 288.97638791 -20.69645882 304.45811939 C-21.50917457 306.40922171 -22.32191694 308.36031295 -23.13469124 310.31139088 C-23.55117928 311.31198536 -23.96766731 312.31257984 -24.3967762 313.34349537 C-24.80246834 314.31718067 -25.20816048 315.29086597 -25.62614632 316.29405689 C-25.97478233 317.13122746 -26.32341835 317.96839802 -26.68261909 318.83093739 C-28.0398365 322.05911531 -29.42320141 325.27624795 -30.80265999 328.49498463 C-68.42265999 328.49498463 -106.04265999 328.49498463 -144.80265999 328.49498463 C-143.90377654 324.00056738 -142.80693334 321.14147291 -140.77531624 317.11217213 C-140.46750725 316.49842731 -140.15969826 315.8846825 -139.84256172 315.25233936 C-138.85568055 313.28868283 -137.86038732 311.32942174 -136.86515999 309.36998463 C-136.23118532 308.10852262 -135.59771802 306.8468055 -134.96476936 305.58482838 C-131.83656719 299.36781878 -128.64879932 293.18581523 -125.38626289 287.03822803 C-118.28136393 273.6463657 -111.55123374 260.06853446 -104.80265999 246.49498463 C-91.22109793 219.17810015 -91.22109793 219.17810015 -84.58696175 206.70567799 C-78.60621326 195.41482865 -72.98977452 183.93550811 -67.30265999 172.49498463 C-54.08160876 145.89876501 -54.08160876 145.89876501 -47.28315926 133.09354115 C-43.11382589 125.23139881 -39.1374865 117.27665885 -35.17765999 109.30748463 C-34.45259357 107.85230982 -33.72733342 106.39723153 -33.00187874 104.94225025 C-31.26624239 101.46109353 -29.53451541 97.9780338 -27.80265999 94.49498463 C-36.38265999 94.49498463 -44.96265999 94.49498463 -53.80265999 94.49498463 C-44.20182567 74.9014452 -33.71918012 55.75732396 -23.24138069 36.62193775 C-20.56724377 31.7379835 -17.91102901 26.84511442 -15.27531624 21.94029713 C-14.68573128 20.84491627 -14.09614632 19.74953541 -13.48869514 18.62096119 C-12.34898636 16.50194943 -11.21181585 14.38156989 -10.07756233 12.25963306 C-9.562743 11.30347095 -9.04792366 10.34730885 -8.51750374 9.36217213 C-8.06496223 8.51767506 -7.61242073 7.67317799 -7.14616585 6.8030901 C-6.70280891 6.04141529 -6.25945198 5.27974049 -5.80265999 4.49498463 C-5.21277133 3.44866729 -5.21277133 3.44866729 -4.61096573 2.38121223 C-2.80265999 0.49498463 -2.80265999 0.49498463 0 0 Z M61.19734001 103.49498463 C60.81215202 104.4104607 60.42696404 105.32593678 60.03010368 106.26915455 C58.50146801 109.902065 56.97238391 113.53478662 55.44328117 117.1675005 C54.3783126 119.69799455 53.31381936 122.22868822 52.24934196 124.75938892 C48.61702852 133.39194015 44.97732989 142.02123912 41.31725883 150.64206409 C39.59235104 154.70489706 37.86979914 158.76872747 36.14719963 162.83253956 C35.31020306 164.80505102 34.47197987 166.77704246 33.63249016 168.74849415 C32.44656953 171.5337759 31.26492425 174.3208379 30.08405876 177.10826588 C29.55999443 178.33430027 29.55999443 178.33430027 29.02534294 179.58510303 C28.53173271 180.75346195 28.53173271 180.75346195 28.02815056 181.94542408 C27.74553871 182.61024296 27.46292686 183.27506184 27.17175102 183.96002674 C25.7125951 187.75606228 24.48338129 191.63686078 23.19734001 195.49498463 C36.39734001 195.49498463 49.59734001 195.49498463 63.19734001 195.49498463 C62.86734001 165.13498463 62.53734001 134.77498463 62.19734001 103.49498463 C61.86734001 103.49498463 61.53734001 103.49498463 61.19734001 103.49498463 Z " fill="#005FAF" transform="translate(1112.8026599884033,33.50501537322998)"/>
<path d="M0 0 C10.22639509 4.61137179 20.1482006 9.61284988 29.95239258 15.06542969 C35.51998593 18.14682869 41.13238128 21.10602705 46.81640625 23.96484375 C48.15527718 24.64183829 49.49414438 25.31884023 50.83300781 25.99584961 C52.81404385 26.99669246 54.79694102 27.99233516 56.78796387 28.97317505 C58.64223945 29.88685354 60.48752142 30.81680201 62.33203125 31.75 C63.40171143 32.28109375 64.4713916 32.8121875 65.57348633 33.359375 C68 35 68 35 69.0246582 36.86230469 C68.98894214 39.95863977 67.81349121 41.77661166 66.2734375 44.453125 C65.35340942 46.0764978 65.35340942 46.0764978 64.41479492 47.73266602 C63.73490083 48.90513245 63.05496823 50.07757656 62.375 51.25 C61.68386137 52.46263992 60.99418068 53.67611187 60.3059082 54.89038086 C59.24809328 56.75659443 58.18958541 58.62235736 57.12672424 60.48570251 C53.72041901 66.46131842 50.44371064 72.50391801 47.1875 78.5625 C38.38724896 94.86501818 29.33720216 110.99872471 20 127 C16.15084212 125.64629972 13.37891278 123.89797514 10.1875 121.375 C-1.34770748 112.85502772 -14.19376289 107.59719469 -28 104 C-28.93328125 103.75378906 -29.8665625 103.50757813 -30.828125 103.25390625 C-52.41990651 98.67670111 -77.05824754 101.74225536 -97 111 C-98.59521484 111.73669922 -98.59521484 111.73669922 -100.22265625 112.48828125 C-121.22946072 122.97916453 -135.20175488 141.18115793 -143.0390625 163.0625 C-148.86013294 180.85699174 -148.1176917 199.20611477 -140.38671875 216.31640625 C-132.52486472 231.53075475 -120.24092235 242.31357887 -104 248 C-70.19193994 258.1805409 -39.64585141 250.60462976 -8.77978516 234.95654297 C-5.54207935 233.21644264 -2.52404036 231.20751306 0.43359375 229.03125 C2 228 2 228 4 228 C2.60539443 232.46239913 0.86987731 236.60530057 -1.1328125 240.828125 C-1.59585533 241.80835129 -1.59585533 241.80835129 -2.06825256 242.80838013 C-3.08407828 244.95706458 -4.10458396 247.10349224 -5.125 249.25 C-5.84322206 250.76756714 -6.56107046 252.28531116 -7.27856445 253.80322266 C-8.77129202 256.96034549 -10.26562619 260.11669988 -11.76123047 263.27246094 C-14.91445597 269.92800139 -18.05271574 276.59057226 -21.18878174 283.25421143 C-22.18502944 285.36975374 -23.18296162 287.48449498 -24.18115234 289.59912109 C-27.41367928 296.45382949 -30.61436778 303.32091252 -33.75390625 310.21875 C-34.35054039 311.52430931 -34.94729874 312.82981187 -35.54418945 314.13525391 C-36.65293818 316.5604487 -37.74976685 318.98990582 -38.84057617 321.42333984 C-39.33146729 322.49793457 -39.8223584 323.5725293 -40.328125 324.6796875 C-40.7499707 325.61538574 -41.17181641 326.55108398 -41.60644531 327.51513672 C-43.81990436 331.46198083 -45.64624082 333.55446596 -50.00512695 334.98901367 C-51.72928833 335.32509644 -51.72928833 335.32509644 -53.48828125 335.66796875 C-55.38416992 336.04791992 -55.38416992 336.04791992 -57.31835938 336.43554688 C-58.64970354 336.68638931 -59.98108406 336.93703883 -61.3125 337.1875 C-62.632432 337.44850533 -63.95209739 337.71086279 -65.27148438 337.97460938 C-74.29579163 339.75010856 -82.9676634 341.15543189 -92.16796875 341.203125 C-93.04286453 341.20882507 -93.91776031 341.21452515 -94.81916809 341.22039795 C-96.67069304 341.22981121 -98.52223446 341.23636725 -100.3737793 341.24023438 C-103.13427341 341.24981527 -105.89398104 341.28082059 -108.65429688 341.3125 C-148.39184234 341.55026558 -186.96585817 329.37667248 -215.875 301.5 C-240.50990336 275.9994485 -251.20886744 240.72259722 -251.04931641 205.84887695 C-250.21647014 157.73757444 -229.48168843 111.38395029 -197.07421875 76.26171875 C-195.19878414 74.21675333 -193.40967467 72.12380525 -191.625 70 C-157.03461151 30.61412584 -102.50821015 9.45437645 -51.35546875 5.4296875 C-39.39486782 4.66668211 -28.62917376 5.03732954 -17 8 C-15.16762148 8.40023005 -13.33444097 8.79683202 -11.5 9.1875 C-10.345 9.455625 -9.19 9.72375 -8 10 C-5.36 6.7 -2.72 3.4 0 0 Z " fill="#005FAF" transform="translate(993,31)"/>
<path d="M0 0 C3.64390784 2.74825132 6.85502336 5.69837702 10 9 C10.56976563 9.56203125 11.13953125 10.1240625 11.7265625 10.703125 C23.02645541 22.64044777 25.98450229 39.1768389 26 55 C24.59559343 77.59817848 11.60347885 93.26425076 -3.60546875 108.6328125 C-27.34026499 133.31096312 -32.9853886 164.88476362 -33.31640625 197.94140625 C-33.33700929 199.67732704 -33.35800657 201.41324318 -33.37937927 203.14915466 C-33.43425431 207.69133723 -33.48381425 212.23356244 -33.53222656 216.77581787 C-33.58269597 221.42154684 -33.63824849 226.06721481 -33.69335938 230.71289062 C-33.80051733 239.80854149 -33.90205419 248.90424559 -34 258 C-36.97 258 -39.94 258 -43 258 C-43.00808685 257.19694427 -43.01617371 256.39388855 -43.02450562 255.5664978 C-43.10338047 247.89139884 -43.1909247 240.21646532 -43.28752708 232.54157066 C-43.3368696 228.59854819 -43.38318827 224.6555449 -43.421875 220.71240234 C-43.25844773 188.52068741 -43.25844773 188.52068741 -48.3125 156.875 C-48.5305127 156.00939453 -48.74852539 155.14378906 -48.97314453 154.25195312 C-50.72270354 147.5455199 -52.90934968 141.21652172 -56 135 C-56.52464844 133.92492187 -57.04929688 132.84984375 -57.58984375 131.7421875 C-62.51084525 122.12335918 -68.57029561 114.20488734 -76.29296875 106.69140625 C-91.49789326 91.62565725 -103.07917302 73.66725518 -103.4375 51.75 C-103.33273946 34.78069668 -97.62534135 19.46301973 -86 7 C-62.78378218 -15.00255382 -26.5789499 -16.94709508 0 0 Z " fill="#005FAF" transform="translate(237,47)"/>
<path d="M0 0 C1.1471347 0.00215515 2.29426941 0.0043103 3.47616577 0.00653076 C19.95861761 0.0562126 36.04795317 0.42304419 52.3125 3.3125 C53.49859863 3.51117676 54.68469727 3.70985352 55.90673828 3.91455078 C89.56236206 9.61708381 121.9044931 19.70601994 153.3125 33.0625 C154.88874146 33.71569214 154.88874146 33.71569214 156.49682617 34.38208008 C169.14636591 39.93023437 172.07630387 52.27121217 176.85351562 64.45410156 C210.32479546 152.03142754 213.31777697 245.12670855 171.66015625 353.99609375 C171.24016357 354.92172119 170.8201709 355.84734863 170.38745117 356.80102539 C169.2951877 359.20737868 169.2951877 359.20737868 168.71606445 361.40014648 C167.85754625 364.29847582 166.74691529 366.02700965 164.22729492 367.68286133 C161.32397198 369.11551952 158.39175533 370.32443245 155.375 371.5 C154.24126953 371.95850342 153.10753906 372.41700684 151.93945312 372.8894043 C128.03848238 382.35047135 103.57316534 390.42440799 78.3125 395.3125 C77.31444336 395.50779297 76.31638672 395.70308594 75.28808594 395.90429688 C72.32009774 396.47539664 69.34938609 397.02576868 66.375 397.5625 C65.53670654 397.71396484 64.69841309 397.86542969 63.8347168 398.02148438 C60.99927809 398.50152417 58.16098781 398.91675522 55.3125 399.3125 C54.05920898 399.49055176 52.80591797 399.66860352 51.51464844 399.85205078 C37.29372638 401.69322743 23.01541577 401.6874112 8.70117188 401.68310547 C5.87636432 401.68294392 3.05221228 401.69670425 0.22753906 401.72412109 C-24.73917177 401.96230271 -48.99823079 399.85685025 -73.375 394.0625 C-74.6535083 393.7644043 -75.9320166 393.46630859 -77.24926758 393.15917969 C-97.49500619 388.36540972 -116.99048532 381.87310827 -136.2109375 373.921875 C-140.13992616 372.29695837 -144.0267434 370.85127077 -148.1015625 369.640625 C-155.1228501 367.40648275 -159.96575284 365.19900109 -163.68359375 358.58203125 C-166.03414115 353.69042158 -167.8701906 348.6589466 -169.60058594 343.51953125 C-170.67599339 340.34645122 -171.84072421 337.22225129 -173.0390625 334.09375 C-187.53589027 295.84776042 -197.7166128 254.44645746 -197.890625 213.375 C-197.89768463 212.26475967 -197.90474426 211.15451935 -197.91201782 210.01063538 C-198.13761361 164.12352975 -198.13761361 164.12352975 -194.6875 144.3125 C-194.48882324 143.11898926 -194.29014648 141.92547852 -194.08544922 140.69580078 C-189.22653726 112.0118419 -181.55633888 84.32145867 -170.6875 57.3125 C-170.28321777 56.30606445 -169.87893555 55.29962891 -169.46240234 54.26269531 C-168.31609795 51.45357362 -167.13704061 48.66175176 -165.9375 45.875 C-165.4271521 44.64994751 -165.4271521 44.64994751 -164.90649414 43.40014648 C-160.73582107 34.0755198 -152.50883795 31.74979724 -143.5 28.125 C-142.30673096 27.64450195 -141.11346191 27.16400391 -139.8840332 26.66894531 C-94.90030731 8.72354089 -48.36124365 -0.16398249 0 0 Z M-132.61425781 34.18212891 C-135.41774295 35.21328049 -138.21802358 36.08755624 -141.0859375 36.91796875 C-148.12613278 39.1405572 -152.96412072 41.42827021 -156.68359375 48.046875 C-159.03947288 52.94485165 -160.87278104 57.9846842 -162.60498047 63.13183594 C-163.65969558 66.23080492 -164.8110898 69.27217008 -166.00390625 72.3203125 C-197.52716001 154.03548091 -195.3701245 244.03602971 -165.91308594 325.89697266 C-165.07625438 328.22909885 -164.25734518 330.56771424 -163.45410156 332.91162109 C-159.25490325 346.9334813 -159.25490325 346.9334813 -150.53125 358.140625 C-147.35306092 359.67245487 -144.44503502 360.70490311 -141.05664062 361.60595703 C-137.24405957 362.74297368 -133.64540812 364.36734855 -129.98608398 365.91870117 C-44.94991616 401.59084696 50.59274535 401.3934846 136.40869141 368.39599609 C139.20480603 367.35268378 142.01778707 366.4114316 144.85546875 365.48828125 C153.80935707 362.45114991 153.80935707 362.45114991 160.71875 356.28515625 C162.27809474 353.07786763 163.47334544 350.00565853 164.54492188 346.61767578 C165.38184907 344.1042322 166.36537673 341.68862394 167.390625 339.24609375 C185.08278325 296.79480846 194.52572428 251.35276694 194.5625 205.375 C194.56350708 204.49699738 194.56451416 203.61899475 194.56555176 202.71438599 C194.55324978 186.7520281 193.57518839 171.13181277 191.3125 155.3125 C191.17328125 154.32121094 191.0340625 153.32992187 190.890625 152.30859375 C186.25471012 120.41521635 176.81877169 89.30468392 164.375 59.625 C163.91448242 58.52591309 163.45396484 57.42682617 162.97949219 56.29443359 C157.55121887 43.72020609 148.73541994 41.62463309 136.38250732 36.66221619 C105.24954377 24.37234189 73.43300653 16.09450303 40.3125 11.3125 C39.40032715 11.17827637 38.4881543 11.04405273 37.54833984 10.90576172 C-19.30288057 2.92841463 -79.59667704 13.76694852 -132.61425781 34.18212891 Z " fill="#005FAF" transform="translate(197.6875,-0.3125)"/>
<path d="M0 0 C11.40558127 8.28288814 19.01347914 18.96768568 22.59765625 32.70703125 C24.65582894 46.39582129 23.3133935 59.27886307 15.8046875 71.0703125 C7.09280436 82.68615668 -4.49148255 85.80291845 -17.98828125 89.3359375 C-55.75927676 99.47553864 -55.75927676 99.47553864 -83.46484375 125.81640625 C-89.23631995 135.83509699 -92.18683123 145.14679455 -93.98828125 156.4609375 C-94.17777344 157.59660156 -94.36726562 158.73226562 -94.5625 159.90234375 C-94.70300781 160.74667969 -94.84351563 161.59101563 -94.98828125 162.4609375 C-97.29828125 162.4609375 -99.60828125 162.4609375 -101.98828125 162.4609375 C-102.77832941 153.01995197 -103.14993914 143.6860693 -103.11328125 134.2109375 C-103.10917236 132.89335449 -103.10506348 131.57577148 -103.10083008 130.21826172 C-103.08090839 125.96559602 -103.03888533 121.71333972 -102.98828125 117.4609375 C-102.97968079 116.72661499 -102.97108032 115.99229248 -102.96221924 115.23571777 C-102.51220014 79.33766463 -98.31531775 47.24658584 -74.98828125 18.4609375 C-74.43785156 17.74550781 -73.88742188 17.03007812 -73.3203125 16.29296875 C-55.68020785 -5.52849404 -25.06773619 -15.75686275 0 0 Z " fill="#005FAF" transform="translate(309.98828125,142.5390625)"/>
<path d="M0 0 C25.32941771 19.18391965 40.85998567 46.08672441 45.77326965 77.35760498 C47.78460244 92.38767936 47.07479667 107.76178773 46.95599365 122.89044189 C46.92486843 127.28238549 46.91151121 131.6743833 46.89648438 136.06640625 C46.86466157 144.62774999 46.81371033 153.18883432 46.75 161.75 C44.44 161.75 42.13 161.75 39.75 161.75 C39.66363281 160.91339844 39.57726562 160.07679688 39.48828125 159.21484375 C37.11327477 139.53933136 29.83127102 123.04218067 14.55078125 109.8515625 C-2.39024695 97.13860076 -23.9075543 91.99369044 -44.02392578 86.67163086 C-56.54623926 83.33867032 -66.89590687 78.67348855 -73.85546875 67.07421875 C-80.40540587 53.49414383 -80.71437719 40.03938912 -76.25 25.75 C-71.45800241 13.38603185 -63.04268684 3.04836683 -51.25 -3.25 C-33.64766112 -10.05845183 -16.18450114 -10.865651 0 0 Z " fill="#005FAF" transform="translate(142.25,143.25)"/>
<path d="M0 0 C3 1 3 1 4.09765625 2.53125 C4.41605469 3.1809375 4.73445313 3.830625 5.0625 4.5 C5.38347656 5.1290625 5.70445312 5.758125 6.03515625 6.40625 C10.03195488 17.15068033 11.43095661 31.70726668 7.4375 42.625 C2.41004684 52.73264185 -5.46857506 60.80782468 -15.8125 65.4375 C-29.16974849 69.7110795 -44.11712439 67.06614159 -57.5144043 64.3359375 C-68.94272461 62.10735173 -78.73236949 63.32346713 -89 69 C-94.46407287 73.03908984 -97.3033239 77.85157849 -100 84 C-102.31 84 -104.62 84 -107 84 C-108.13919245 70.04489243 -102.25426177 57.09101523 -93.8984375 46.28125 C-78.70717795 28.45970169 -55.39099568 22.14664755 -33.55859375 16.25 C-32.4507251 15.94843994 -31.34285645 15.64687988 -30.20141602 15.33618164 C-28.04239403 14.75288917 -25.8802287 14.18106494 -23.71459961 13.62280273 C-14.05191503 11.03048892 -6.75213207 7.44465843 0 0 Z " fill="#005FAF" transform="translate(327,221)"/>
<path d="M0 0 C3 1 3 1 4.5625 3.25 C12.01457254 11.65746645 25.26526306 13.58498148 35.6875 16.4375 C47.44777644 19.66556296 58.79811007 23.13827709 70 28 C71.17574585 28.5098645 71.17574585 28.5098645 72.37524414 29.0300293 C88.62510036 36.40078332 99.3003712 48.28900483 106.1171875 64.6875 C108.23248652 70.97295996 108.67156743 77.40869817 109 84 C106.36 84 103.72 84 101 84 C100.70867187 83.33613281 100.41734375 82.67226563 100.1171875 81.98828125 C96.00821655 73.13719602 91.08786685 68.641829 82 65 C73.85897229 62.21648685 66.34955 63.15792906 58.03515625 64.7421875 C25.48325562 70.87254431 25.48325562 70.87254431 13 63 C12.31292969 62.57589844 11.62585938 62.15179688 10.91796875 61.71484375 C1.72967171 55.40777178 -5.53197504 46.84828731 -7.609375 35.7421875 C-8.89095579 23.46464354 -7.96025393 9.93894562 0 0 Z " fill="#005FAF" transform="translate(68,221)"/>
<path d="M0 0 C6.67681288 0.60698299 13.66012807 1.44598029 19.125 5.625 C20.53945856 9.46424467 19.98745899 13.07920697 19 17 C18.02418241 18.35113205 17.02970259 19.68946944 16 21 C16.33220255 22.66689243 16.66576776 24.33351337 17 26 C16.91802229 28.10762055 16.77009081 30.21352626 16.5625 32.3125 C16.46066406 33.38113281 16.35882813 34.44976562 16.25390625 35.55078125 C16.17011719 36.35902344 16.08632812 37.16726563 16 38 C9.125 37.125 9.125 37.125 8 36 C7.92741054 33.81360547 7.91626217 31.62499611 7.9375 29.4375 C7.95103516 27.64119141 7.95103516 27.64119141 7.96484375 25.80859375 C7.97644531 24.88175781 7.98804688 23.95492188 8 23 C5.525 22.01 5.525 22.01 3 21 C2.95101562 21.59167969 2.90203125 22.18335938 2.8515625 22.79296875 C2.43543133 27.19104472 1.95034405 30.96928897 0 35 C-2.31 34.34 -4.62 33.68 -7 33 C-5.87388385 25.57652378 -4.47359873 18.22285746 -2.9375 10.875 C-2.7631543 10.03348389 -2.58880859 9.19196777 -2.40917969 8.32495117 C-2.1582959 7.13929565 -2.1582959 7.13929565 -1.90234375 5.9296875 C-1.67792603 4.86596924 -1.67792603 4.86596924 -1.44897461 3.78076172 C-1 2 -1 2 0 0 Z M6 7 C5.67 9.64 5.34 12.28 5 15 C7.97 15.495 7.97 15.495 11 16 C12.42944945 13.64561267 13.08661261 12.51967567 12.625 9.75 C12.41875 9.1725 12.2125 8.595 12 8 C9.03 7.505 9.03 7.505 6 7 Z " fill="#0060AE" transform="translate(125,330)"/>
<path d="M0 0 C1.67578125 1.26953125 1.67578125 1.26953125 3 3 C3.29296875 5.15625 3.29296875 5.15625 3.1875 7.5 C3.16042969 8.2734375 3.13335937 9.046875 3.10546875 9.84375 C3.07066406 10.5553125 3.03585938 11.266875 3 12 C2.66085995 15.00117757 2.66085995 15.00117757 4.5 16.625 C6.80996306 20.28244151 6.79400521 23.79776486 6 28 C3.64122063 31.33004147 2.10551357 32.68062941 -1.8125 33.8125 C-5.55812064 34.03283063 -9.24809757 34.06468797 -13 34 C-14.72932949 26.84959851 -15.76234387 19.73926793 -16.625 12.4375 C-16.7590625 11.33341797 -16.893125 10.22933594 -17.03125 9.09179688 C-17.35813647 6.39498349 -17.6809627 3.69775124 -18 1 C-16.25108274 0.6571896 -14.500811 0.32128481 -12.75 -0.01171875 C-11.77546875 -0.19951904 -10.8009375 -0.38731934 -9.796875 -0.58081055 C-6.1147381 -1.1326811 -3.59053485 -0.97243652 0 0 Z M-10 5 C-9.67 7.64 -9.34 10.28 -9 13 C-7.35 12.34 -5.7 11.68 -4 11 C-3.957279 9.33388095 -3.95936168 7.66617115 -4 6 C-5.06645115 4.70366379 -5.06645115 4.70366379 -7.5625 4.9375 C-8.366875 4.958125 -9.17125 4.97875 -10 5 Z M-8 19 C-7.67 21.97 -7.34 24.94 -7 28 C-5.35 27.67 -3.7 27.34 -2 27 C-0.7922442 23.37673261 -1.45688872 22.35853631 -3 19 C-4.65 19 -6.3 19 -8 19 Z " fill="#005FAF" transform="translate(244,337)"/>
<path d="M0 0 C3.60961876 1.24695921 5.37864166 2.02743913 7.4375 5.25 C8.14846037 8.72580624 7.67822439 11.54105559 7 15 C4.69 14.34 2.38 13.68 0 13 C-0.33 11.02 -0.66 9.04 -1 7 C-2.65 7.33 -4.3 7.66 -6 8 C-6.67736481 10.03814233 -7.34143534 12.08070555 -8 14.125 C-8.37125 15.26195312 -8.7425 16.39890625 -9.125 17.5703125 C-9.96911949 20.87895941 -10.16509276 23.60528016 -10 27 C-8.35 27.33 -6.7 27.66 -5 28 C-4.34 26.02 -3.68 24.04 -3 22 C-4.32 21.67 -5.64 21.34 -7 21 C-6.34 19.02 -5.68 17.04 -5 15 C-1.7 15.99 1.6 16.98 5 18 C4.48914188 24.43681228 3.27057103 29.95942424 1 36 C-1.00277585 35.68377223 -3.00189338 35.34450114 -5 35 C-6.24716797 34.81630859 -6.24716797 34.81630859 -7.51953125 34.62890625 C-8.39996094 34.48324219 -9.28039062 34.33757812 -10.1875 34.1875 C-11.44626953 33.99220703 -11.44626953 33.99220703 -12.73046875 33.79296875 C-15.64528303 32.77453967 -16.50956677 31.67708388 -18 29 C-19.75452343 20.41706108 -16.51111598 10.69130969 -12.48828125 3.17578125 C-9.48055321 -1.22134347 -4.87312533 -0.45045696 0 0 Z " fill="#005FAF" transform="translate(107,324)"/>
<path d="M0 0 C2.64 0.33 5.28 0.66 8 1 C7.93941406 1.77601563 7.87882813 2.55203125 7.81640625 3.3515625 C7.17928286 11.56555329 6.57909893 19.78172371 6 28 C6.99 28.33 7.98 28.66 9 29 C9.66 28.67 10.32 28.34 11 28 C13.67041798 19.82184495 14.00609909 10.5221716 15 2 C17.64 2.33 20.28 2.66 23 3 C22.71776784 6.14675241 22.42244294 9.29215185 22.125 12.4375 C22.00705078 13.75524414 22.00705078 13.75524414 21.88671875 15.09960938 C20.43651017 30.21524494 20.43651017 30.21524494 16.9375 34.5625 C12.85936467 36.55818324 9.45972822 36.66621599 5 36 C-0.6 33.8 -0.6 33.8 -2 31 C-2.60401435 20.52105331 -1.52327698 10.35012302 0 0 Z " fill="#005FAF" transform="translate(154,335)"/>
<path d="M0 0 C1.62158203 2.05371094 1.62158203 2.05371094 3.0078125 4.734375 C3.51957031 5.70117188 4.03132813 6.66796875 4.55859375 7.6640625 C5.07550781 8.68242187 5.59242188 9.70078125 6.125 10.75 C7.16870322 12.74508871 8.21295625 14.73988991 9.2578125 16.734375 C9.7130127 17.62350586 10.16821289 18.51263672 10.63720703 19.42871094 C11.58718039 21.22110066 12.60482864 22.97853958 13.67138672 24.70410156 C15 27 15 27 15 29 C12.69 29.66 10.38 30.32 8 31 C5 26.25 5 26.25 5 24 C2.69 24.33 0.38 24.66 -2 25 C-1.67 27.97 -1.34 30.94 -1 34 C-3.31 34.66 -5.62 35.32 -8 36 C-11.24353076 25.23365839 -10.14438246 12.16557695 -10 1 C-6.21916147 -0.83640728 -4.01681658 -1.36626414 0 0 Z M-4 8 C-3 10 -3 10 -3 10 Z M-3 10 C-3 12.97 -3 15.94 -3 19 C-1.68 18.67 -0.36 18.34 1 18 C-0.26974972 13.58477891 -0.26974972 13.58477891 -3 10 Z " fill="#005FAF" transform="translate(295,326)"/>
<path d="M0 0 C3.12648295 2.37884572 4.68040393 3.9955552 5.875 7.75 C5.91625 8.4925 5.9575 9.235 6 10 C5 11 5 11 1.9375 11.0625 C0.968125 11.041875 -0.00125 11.02125 -1 11 C-1.66 9.35 -2.32 7.7 -3 6 C-3.99 6.33 -4.98 6.66 -6 7 C-6.37369729 14.47394574 -5.04061541 20.82140651 -3 28 C-1.68 28 -0.36 28 1 28 C1 25.69 1 23.38 1 21 C4.465 20.505 4.465 20.505 8 20 C9.76066381 23.52132761 8.93299981 27.27461778 8 31 C5.76990836 33.94947604 4.21358136 34.79577272 0.5859375 35.40625 C-3.5065585 35.64769519 -6.09356428 35.6740163 -9.4375 33.1875 C-13.71065876 24.47025613 -15.56351355 14.66423731 -14 5 C-10.13886821 0.07316305 -6.09639365 -0.63066141 0 0 Z " fill="#005FAF" transform="translate(270,331)"/>
<path d="M0 0 C2.41696872 -0.05411124 4.83271787 -0.09372278 7.25 -0.125 C7.93191406 -0.14175781 8.61382812 -0.15851563 9.31640625 -0.17578125 C13.03900895 -0.21192302 15.89776745 -0.17687223 19 2 C21.44538623 5.84274979 21.23663813 9.54583847 20.58984375 13.90625 C20 16 20 16 18 18.5625 C13.78369436 20.58281312 10.64874204 20.27753684 6 20 C6 24.29 6 28.58 6 33 C3.36 33 0.72 33 -2 33 C-1.85949111 29.1872846 -1.71161266 25.37488784 -1.5625 21.5625 C-1.50352539 19.95858398 -1.50352539 19.95858398 -1.44335938 18.32226562 C-1.19873496 12.16902064 -0.76466 6.11085425 0 0 Z M7 6 C7 8.64 7 11.28 7 14 C8.66611905 14.042721 10.33382885 14.04063832 12 14 C13.34404775 12.88163776 13.34404775 12.88163776 13.125 10 C13.34404775 7.11836224 13.34404775 7.11836224 12 6 C10.33382885 5.95936168 8.66611905 5.957279 7 6 Z " fill="#005FAF" transform="translate(185,339)"/>
</svg>
