<?xml version="1.0" encoding="UTF-8"?>
<svg version="1.1" xmlns="http://www.w3.org/2000/svg" width="787" height="317">
<path d="M0 0 C10.76580877 -0.25183178 21.90604494 0.6212237 31.359375 6.125 C32.05675781 6.52332031 32.75414062 6.92164063 33.47265625 7.33203125 C44.46338861 14.51429891 47.15599997 28.07280919 50.359375 40 C50.82755293 41.70272101 51.29665803 43.40518731 51.76660156 45.10742188 C56.26305407 61.47477817 60.5554012 77.89892353 64.8671875 94.31567383 C68.97122301 109.93344174 73.14325407 125.53158573 77.38586426 141.11230469 C78.02376641 143.45498533 78.66076269 145.79791287 79.29675293 148.14111328 C83.11472797 162.20040701 87.09165728 176.19531787 91.359375 190.125 C91.689375 190.125 92.019375 190.125 92.359375 190.125 C92.36295753 188.68352616 92.36295753 188.68352616 92.36661243 187.21293163 C92.42535016 163.85358832 92.50119731 140.49434863 92.59508991 117.13511944 C92.64009723 105.8388684 92.67950044 94.54264923 92.70581055 83.24633789 C92.72875072 73.4029746 92.76210393 63.55971178 92.80807656 53.7164281 C92.83206262 48.50221269 92.85075605 43.28809711 92.85698891 38.07382774 C92.86301549 33.16956615 92.8829269 28.26556015 92.91365051 23.36139297 C92.92246982 21.55821949 92.92614532 19.75501266 92.92438316 17.95181847 C92.92274042 15.49591577 92.93934308 13.04080161 92.96064758 10.58500671 C92.95337622 9.5067035 92.95337622 9.5067035 92.94595796 8.40661639 C93.01526807 3.58854843 93.01526807 3.58854843 94.60969514 1.44068652 C96.81571178 -0.21814629 97.99786481 -0.23913906 100.73901367 -0.21557617 C101.61970016 -0.21534958 102.50038666 -0.21512299 103.40776062 -0.21488953 C104.35472305 -0.19940567 105.30168549 -0.18392181 106.27734375 -0.16796875 C107.24972488 -0.16372391 108.22210602 -0.15947906 109.22395325 -0.15510559 C112.33187466 -0.13830315 115.43914934 -0.10064779 118.546875 -0.0625 C120.65298543 -0.0474552 122.75910602 -0.03376644 124.86523438 -0.02148438 C130.03019738 0.01160556 135.19467651 0.06339891 140.359375 0.125 C140.49960269 27.85435129 140.60537452 55.58364935 140.67024803 83.31328392 C140.701172 96.18895707 140.74332513 109.06440976 140.81201172 121.93994141 C140.87185779 133.16365 140.91053474 144.38719892 140.92390597 155.61106265 C140.93172078 161.55283351 140.95005784 167.49414762 140.99375534 173.43577194 C141.03457809 179.03202231 141.04702425 184.62762916 141.03802109 190.22401428 C141.03966738 192.27424749 141.05154428 194.32450294 141.07460785 196.37460709 C141.28543561 216.08720865 141.28543561 216.08720865 134.359375 224.125 C133.83036779 224.81146795 133.30136059 225.49793591 132.75632286 226.20520592 C127.95231661 232.37737758 121.92407229 236.35460465 114.17114258 237.66308594 C108.21809692 238.38448236 102.26909043 238.34943423 96.28149414 238.36523438 C94.06293078 238.37492983 91.84529956 238.40600967 89.62695312 238.4375 C77.36111938 238.53197568 68.65082033 237.39812728 59.61328125 228.55859375 C46.47108466 214.36866571 43.71242536 191.83551231 38.734375 173.6875 C38.37801064 172.3916772 38.02151325 171.09589098 37.66488647 169.80014038 C33.05822844 153.06228691 28.50451678 136.31086589 24.03170776 119.53671265 C20.19976075 105.16896896 16.26575452 90.83049736 12.296875 76.5 C12.01252594 75.47315094 11.72817688 74.44630188 11.43521118 73.38833618 C10.62803766 70.47485381 9.82014491 67.56157253 9.01171875 64.6484375 C8.77264801 63.7868251 8.53357727 62.92521271 8.28726196 62.03749084 C7.84721639 60.45419117 7.40478484 58.87155178 6.95944214 57.28973389 C6.56558085 55.86888475 6.18562657 54.44409211 5.82107544 53.01544189 C5.39097957 51.36929663 4.88271873 49.74391569 4.359375 48.125 C3.369375 47.63 3.369375 47.63 2.359375 47.125 C2.36214038 48.09113629 2.36490576 49.05727259 2.36775494 50.05268574 C2.43428875 73.5371138 2.48362141 97.02152966 2.51481152 120.50603199 C2.53029487 131.86286069 2.55141241 143.21962722 2.58569336 154.57641602 C2.6155508 164.4724574 2.63493931 174.36845377 2.64164048 184.26453894 C2.64555895 189.50674141 2.65479828 194.74881506 2.67656517 199.99097633 C2.69687261 204.92143424 2.70322047 209.85170982 2.69869804 214.78220558 C2.69952582 216.59508249 2.70552556 218.40796528 2.71699142 220.22080612 C2.73184589 222.68977382 2.72835472 225.15804674 2.72013855 227.62702942 C2.73324634 228.71116905 2.73324634 228.71116905 2.74661893 229.8172105 C2.72021926 232.73799368 2.69555112 234.65754225 0.96014118 237.07065487 C-1.10898055 238.43348252 -2.41044538 238.49348281 -4.88085938 238.48144531 C-5.73184204 238.48444641 -6.58282471 238.48744751 -7.45959473 238.49053955 C-8.37527222 238.47819275 -9.29094971 238.46584595 -10.234375 238.453125 C-11.17744507 238.45125183 -12.12051514 238.44937866 -13.09216309 238.44744873 C-15.08605484 238.44072626 -17.07993336 238.42680792 -19.07373047 238.40625 C-22.12870518 238.37512146 -25.18316373 238.36528146 -28.23828125 238.359375 C-30.17448547 238.3502038 -32.11068443 238.33982766 -34.046875 238.328125 C-35.42039124 238.32175018 -35.42039124 238.32175018 -36.82165527 238.31524658 C-38.09812927 238.30083527 -38.09812927 238.30083527 -39.40039062 238.28613281 C-40.14857056 238.27930481 -40.89675049 238.27247681 -41.66760254 238.26544189 C-43.640625 238.125 -43.640625 238.125 -46.640625 237.125 C-47.82470769 233.57275194 -47.78229885 230.36146641 -47.77433777 226.66549683 C-47.77660333 225.89905322 -47.77886888 225.13260962 -47.78120309 224.34294045 C-47.78754945 221.76620944 -47.78671328 219.18953095 -47.78588867 216.61279297 C-47.78888007 214.76803519 -47.79228255 212.92327805 -47.79606628 211.07852173 C-47.80491991 206.05705358 -47.80724518 201.03560246 -47.80788207 196.01412725 C-47.80859266 192.87199698 -47.81072732 189.72987105 -47.81337929 186.58774185 C-47.82264244 175.61041235 -47.82671362 164.633095 -47.82592773 153.65576172 C-47.82532908 143.45236236 -47.83583663 133.24901624 -47.8516714 123.04563034 C-47.86480077 114.27000268 -47.87010926 105.49439228 -47.86947232 96.71875489 C-47.8692186 91.4851311 -47.87199911 86.25155446 -47.88265038 81.01794052 C-47.89242054 76.08167265 -47.89235021 71.14549603 -47.88513374 66.2092247 C-47.88409836 64.41029729 -47.88638749 62.61136394 -47.8924942 60.81244659 C-47.92023946 52.0626305 -47.73477077 43.43353587 -46.7348175 34.7336731 C-46.65519152 34.03945216 -46.57556553 33.34523123 -46.49352664 32.62997329 C-45.800426 27.23077222 -44.4923013 22.75189202 -41.640625 18.125 C-41.02574219 17.08472656 -41.02574219 17.08472656 -40.3984375 16.0234375 C-34.75047307 7.50362676 -26.39787027 3.76787941 -16.6484375 1.6484375 C-11.0993511 0.68275233 -5.61940692 0.26600743 0 0 Z " fill="#6D6E70" transform="translate(646.640625,35.875)"/>
<path d="M0 0 C1.03723709 0.00303635 1.03723709 0.00303635 2.09542847 0.00613403 C2.81310394 0.00517731 3.53077942 0.00422058 4.27020264 0.00323486 C5.80195197 0.00255194 7.33370416 0.00441396 8.865448 0.00857544 C11.15441886 0.01381336 13.44318343 0.00869238 15.73214722 0.00222778 C25.18687506 -0.00265015 34.68276686 0.07207301 44.08761597 1.13894653 C45.99825612 3.04958669 45.21823066 6.47645932 45.22042847 9.00613403 C45.22138519 9.71432281 45.22234192 10.4225116 45.22332764 11.15216064 C45.22401092 12.66712532 45.2221464 14.18209288 45.21798706 15.697052 C45.21278257 17.94208014 45.21785054 20.18689467 45.22433472 22.43191528 C45.22670045 30.37703832 45.02527861 38.28446298 44.57931519 46.21755981 C44.53221909 47.08200211 44.48512299 47.9464444 44.43659973 48.83708191 C44.32191639 50.93779388 44.20500463 53.038384 44.08761597 55.13894653 C44.63831127 55.12696322 45.18900658 55.11497992 45.75638962 55.10263348 C59.20408938 54.81456636 72.65124338 54.60078514 86.10137558 54.4653883 C92.60626375 54.39769491 99.10891664 54.30597064 105.61251831 54.15823364 C111.89565032 54.01640705 118.17664055 53.93913574 124.46125031 53.90554237 C126.85200968 53.88162175 129.24265881 53.83490541 131.63249969 53.7644558 C151.33734088 53.20697374 151.33734088 53.20697374 157.16195679 57.96795654 C160.28552307 61.06516183 162.66113444 64.48104245 165.08761597 68.13894653 C166.39284149 69.60201535 167.71926853 71.04723525 169.08761597 72.45144653 C179.48207141 84.53626245 180.95503672 100.85366758 180.08761597 116.13894653 C178.31976558 135.27224395 174.31821163 154.39030263 159.72824097 168.03738403 C138.80885108 184.68624758 113.3761095 182.30390282 88.07199097 182.34207153 C86.80084694 182.34489891 85.52970291 182.34772629 84.22003937 182.35063934 C78.2026241 182.36400151 72.18523089 182.3739433 66.16780353 182.37784123 C59.25213707 182.382349 52.33666557 182.40005914 45.42105842 182.42884183 C39.39716024 182.45303715 33.37335488 182.46078335 27.34940338 182.46251678 C24.79606298 182.46554545 22.24272346 182.47358114 19.68941498 182.48670197 C16.13547129 182.50368988 12.58201305 182.50190197 9.02804565 182.49539185 C7.97352707 182.50460663 6.91900848 182.51382141 5.83253479 182.52331543 C4.38228661 182.5149617 4.38228661 182.5149617 2.90274048 182.50643921 C1.64524553 182.50863905 1.64524553 182.50863905 0.36234665 182.51088333 C-2.61729125 182.02368852 -3.88173775 181.39498181 -5.91238403 179.13894653 C-6.40736866 175.99270439 -6.40736866 175.99270439 -6.40013123 172.02734375 C-6.40425449 171.29861372 -6.40837776 170.56988369 -6.41262597 169.81907094 C-6.42157595 167.37046669 -6.40187464 164.92292646 -6.38235474 162.47439575 C-6.38286335 160.72190216 -6.38511788 158.96940833 -6.38899231 157.21691895 C-6.39442183 152.45256624 -6.37497408 147.68860087 -6.35089135 142.92431784 C-6.32963912 137.94664792 -6.330192 132.96898006 -6.32820129 127.99127197 C-6.32174926 119.63336493 -6.30048322 111.27560401 -6.26907349 102.91775513 C-6.22875666 92.17535905 -6.21138357 81.43305818 -6.20176411 70.69059563 C-6.19347489 61.47149488 -6.17623374 52.25241448 -6.1567266 43.03333139 C-6.15065071 40.06150679 -6.14551246 37.08968142 -6.14037514 34.11785507 C-6.13161626 29.45742135 -6.11733096 24.79703526 -6.09866524 20.13663101 C-6.09252422 18.42129285 -6.0880844 16.70594768 -6.08542252 14.99060059 C-6.08146374 12.65921516 -6.07136811 10.32793892 -6.05955505 7.99658203 C-6.05528157 6.68876707 -6.05100809 5.38095211 -6.04660511 4.03350639 C-5.82702608 -0.70185006 -4.30608257 0.02146971 0 0 Z M44.08761597 86.13894653 C43.9891463 87.69893701 43.95962979 89.26335198 43.95822144 90.82644653 C43.95506927 91.82418091 43.95191711 92.82191528 43.94866943 93.84988403 C43.95069366 94.93527466 43.9527179 96.02066528 43.95480347 97.13894653 C43.95384674 98.24496216 43.95289001 99.35097778 43.9519043 100.49050903 C43.9512223 102.83425961 43.95307793 105.17801206 43.95724487 107.52175903 C43.96259283 111.12336441 43.9573005 114.72484507 43.95089722 118.32644653 C43.95155799 120.59728014 43.95283915 122.86811368 43.95480347 125.13894653 C43.95277924 126.22433716 43.950755 127.30972778 43.94866943 128.42800903 C43.95182159 129.42574341 43.95497375 130.42347778 43.95822144 131.45144653 C43.95901703 132.33445435 43.95981262 133.21746216 43.96063232 134.12722778 C43.86490923 136.13662545 43.86490923 136.13662545 45.08761597 137.13894653 C47.42851159 137.25513421 49.74032763 137.30692106 52.08248901 137.31594849 C53.18015846 137.32580528 53.18015846 137.32580528 54.30000305 137.33586121 C56.73311455 137.3556457 59.16616407 137.36727042 61.59933472 137.37722778 C62.84443786 137.38334107 62.84443786 137.38334107 64.1146946 137.38957787 C68.51118346 137.41046426 72.9076409 137.4247527 77.3041687 137.43411255 C81.84271169 137.44516016 86.38076209 137.47953329 90.91913128 137.51928425 C94.40991617 137.54545904 97.90058412 137.55380532 101.39145851 137.55739403 C103.06397629 137.5622607 104.73648882 137.57387705 106.40891075 137.59243202 C108.75492364 137.61683437 111.09966877 137.61585662 113.44577026 137.60891724 C114.47704041 137.62813232 114.47704041 137.62813232 115.52914429 137.6477356 C120.48133173 137.59452776 123.24899577 136.18974062 127.08761597 133.13894653 C133.80654979 125.52306767 134.52017805 116.11726424 134.33761597 106.36160278 C133.85698544 100.16597493 132.64799425 95.12104868 128.77511597 90.20144653 C123.40377862 86.07925741 119.31237368 84.7637338 112.53756714 84.78250122 C111.80677948 84.78045685 111.07599182 84.77841248 110.32305908 84.77630615 C107.92530698 84.77331563 105.5282542 84.79171584 103.13058472 84.81082153 C101.46003896 84.81388108 99.78949065 84.81575571 98.11894226 84.8164978 C94.62801261 84.82108924 91.13731514 84.83547581 87.64645386 84.85769653 C83.16267959 84.88608778 78.67908708 84.89692022 74.19523144 84.90137863 C70.75097321 84.90552454 67.30675199 84.91533326 63.86251259 84.92725372 C62.20822764 84.93296444 60.55393911 84.93772049 58.89964867 84.94152069 C56.59659864 84.9483595 54.29369562 84.96197746 51.99069214 84.97781372 C50.67864304 84.98464172 49.36659393 84.99146973 48.01478577 84.99850464 C45.19755162 84.80487514 45.19755162 84.80487514 44.08761597 86.13894653 Z " fill="#6D6E70" transform="translate(29.912384033203125,91.86105346679688)"/>
<path d="M0 0 C2.03546698 -0.00134994 4.07093365 -0.0032932 6.10639954 -0.00579834 C10.34139114 -0.00872676 14.57629767 -0.0045211 18.8112793 0.00488281 C24.2430292 0.01635668 29.67458314 0.00965372 35.1063261 -0.00226212 C39.2952473 -0.00947425 43.48412163 -0.00719716 47.6730442 -0.00200653 C49.67735632 -0.00067239 51.68167269 -0.00230952 53.68597984 -0.00696564 C56.47395602 -0.01202892 59.26160858 -0.0043271 62.04956055 0.00683594 C62.87704803 0.00278748 63.70453552 -0.00126099 64.55709839 -0.00543213 C68.43172504 0.02339598 70.31397101 0.06608484 73.61328125 2.265625 C73.9740448 4.10061646 73.9740448 4.10061646 73.95385742 6.34814453 C73.95363083 7.18886505 73.95340424 8.02958557 73.95317078 8.89578247 C73.93768692 9.80415863 73.92220306 10.71253479 73.90625 11.6484375 C73.90200516 12.57784149 73.89776031 13.50724548 73.89338684 14.46481323 C73.87656137 17.44037556 73.83890228 20.41526656 73.80078125 23.390625 C73.78573941 25.40493815 73.77205013 27.41926189 73.75976562 29.43359375 C73.72664519 34.37786379 73.67483654 39.32163049 73.61328125 44.265625 C70.21088142 45.39975828 67.64420154 45.37897223 64.05664062 45.36328125 C63.3942186 45.36182098 62.73179657 45.36036072 62.04930115 45.3588562 C60.60883338 45.35505014 59.16837031 45.3489335 57.72792053 45.34078979 C55.42891509 45.3279682 53.12996787 45.32149297 50.83093262 45.31665039 C45.10590651 45.30330496 39.38093384 45.27942249 33.65594482 45.25524902 C10.92209554 45.06339684 10.92209554 45.06339684 -11.80078125 45.6015625 C-12.8764032 45.63999268 -12.8764032 45.63999268 -13.97375488 45.67919922 C-21.15461317 46.08578907 -25.87749685 48.90554503 -30.94921875 53.76171875 C-38.37183079 62.62025276 -39.52780011 76.21127696 -39.5637207 87.30932617 C-39.5702919 88.19961517 -39.5768631 89.08990417 -39.58363342 90.00717163 C-39.60327414 92.94098001 -39.61500862 95.87473741 -39.625 98.80859375 C-39.62907553 99.81538996 -39.63315105 100.82218616 -39.63735008 101.85949135 C-39.65817186 107.18895891 -39.67249019 112.51840102 -39.68188477 117.84790039 C-39.69293895 123.33077376 -39.7273389 128.8132402 -39.76705647 134.29596996 C-39.79329358 138.5315472 -39.80158291 142.76702848 -39.80516624 147.00267982 C-39.81001409 149.0227362 -39.82157617 151.04278882 -39.84020424 153.06276512 C-40.0733262 170.21506974 -40.0733262 170.21506974 -33.26171875 185.703125 C-23.73927986 194.19051618 -11.57755788 192.83673492 0.390625 192.8046875 C2.40939901 192.81460361 4.42816399 192.82654832 6.44691467 192.84042358 C11.73438401 192.87265417 17.0216462 192.88316763 22.3092041 192.88726807 C30.79606316 192.89605694 39.28275355 192.93144314 47.76947212 192.9794426 C50.73154636 192.99204254 53.69340668 192.99126942 56.65550232 192.98916626 C58.46296353 192.99574346 60.27042326 193.0027491 62.07788086 193.01025391 C62.90230179 193.00612991 63.72672272 193.00200592 64.5761261 192.99775696 C68.44629985 193.02533656 70.31723154 193.06825853 73.61328125 195.265625 C73.91708832 198.36407493 74.03310891 201.25890113 74.01171875 204.359375 C74.01602402 205.7130719 74.01602402 205.7130719 74.02041626 207.09411621 C74.02245964 209.003994 74.01691069 210.91389259 74.00439453 212.82373047 C73.98834462 215.75405488 74.00423384 218.68299995 74.0234375 221.61328125 C74.02145512 223.46614889 74.01761154 225.31901567 74.01171875 227.171875 C74.01779144 228.05210327 74.02386414 228.93233154 74.03012085 229.8392334 C74.00146484 232.30664062 74.00146484 232.30664062 73.61328125 236.265625 C69.90604381 238.73711663 67.08729305 238.54062218 62.79980469 238.50854492 C62.00416107 238.51044327 61.20851746 238.51234161 60.38876343 238.51429749 C57.74996163 238.51801022 55.11143377 238.50728284 52.47265625 238.49609375 C50.62957796 238.49490069 48.78649906 238.49444906 46.94342041 238.4947052 C43.06966368 238.49313877 39.19599914 238.48484547 35.32226562 238.47143555 C30.3969965 238.45458823 25.47183004 238.45061722 20.54653549 238.45138073 C16.73198495 238.4511062 12.91745613 238.44557784 9.1029129 238.43837929 C7.28994155 238.43523038 5.47696777 238.43323422 3.66399384 238.43248558 C-21.55516283 238.41070196 -45.36099738 237.75891078 -65.38671875 220.265625 C-65.96679688 219.77964844 -66.546875 219.29367188 -67.14453125 218.79296875 C-79.41761183 207.63302803 -88.34269556 190.23130745 -89.57896042 173.69404793 C-89.65885546 170.84663828 -89.6798383 168.00502704 -89.67724609 165.15649414 C-89.68396332 164.0819397 -89.69068054 163.00738525 -89.69760132 161.90026855 C-89.71651108 158.36705829 -89.72050272 154.8340389 -89.72265625 151.30078125 C-89.72909157 148.82327702 -89.73582047 146.34577355 -89.74282837 143.86827087 C-89.75478548 138.67770632 -89.75851105 133.48720821 -89.75732422 128.29663086 C-89.75712171 121.69017257 -89.78436107 115.08414773 -89.81886864 108.47779179 C-89.84126523 103.35835367 -89.84515778 98.23901751 -89.84410477 93.11953545 C-89.84644398 90.6866145 -89.85517112 88.25369001 -89.8707695 85.82081795 C-90.02006959 60.11788945 -87.08353774 39.51213351 -68.48828125 20.3046875 C-48.7514866 1.90033468 -25.51863378 -0.06004845 0 0 Z " fill="#6D6E70" transform="translate(320.38671875,35.734375)"/>
<path d="M0 0 C0.67014916 -0.00311998 1.34029833 -0.00623996 2.03075504 -0.00945449 C4.28092758 -0.01744491 6.53083122 -0.0111069 8.78100586 -0.00482178 C10.39232542 -0.00753118 12.00364375 -0.01109183 13.61495972 -0.01544189 C17.99503988 -0.02457421 22.37502603 -0.02101818 26.75510788 -0.01468372 C31.33413704 -0.00962809 35.91315803 -0.01431396 40.4921875 -0.01745605 C48.18255054 -0.02109697 55.8728752 -0.0162933 63.56323242 -0.0067749 C72.46043378 0.00410989 81.35754349 0.0005844 90.25474262 -0.01042771 C97.88706657 -0.019497 105.51936289 -0.02078762 113.15169048 -0.01555037 C117.71305024 -0.0124287 122.27436688 -0.01202674 126.83572388 -0.01862335 C131.12354966 -0.02439098 135.41125702 -0.02041064 139.69906998 -0.00883484 C141.27489144 -0.00618513 142.85072283 -0.00695864 144.42654037 -0.01136017 C146.5733956 -0.01680487 148.71986852 -0.0099949 150.86669922 0 C152.06942978 0.00075405 153.27216034 0.0015081 154.51133728 0.002285 C157.43334961 0.25396729 157.43334961 0.25396729 160.43334961 2.25396729 C160.72475892 5.35265144 160.82906059 8.2482225 160.79663086 11.34771729 C160.79737862 12.70141418 160.79737862 12.70141418 160.79814148 14.0824585 C160.7957988 15.99235229 160.78605888 17.90224904 160.76953125 19.81207275 C160.74594431 22.74220265 160.748968 25.6714229 160.75561523 28.60162354 C160.75003852 30.45449357 160.74292869 32.30735975 160.73413086 34.16021729 C160.73504227 35.04044556 160.73595367 35.92067383 160.7368927 36.82757568 C160.66436608 43.02295082 160.66436608 43.02295082 158.43334961 45.25396729 C155.99093628 45.49447632 155.99093628 45.49447632 152.88208008 45.48101807 C151.14050125 45.48079147 151.14050125 45.48079147 149.36373901 45.4805603 C148.10538239 45.47023773 146.84702576 45.45991516 145.55053711 45.44927979 C144.2659964 45.44644989 142.98145569 45.44362 141.6579895 45.44070435 C138.24172194 45.43306537 134.82562424 45.41341481 131.40942383 45.39129639 C127.92393288 45.37084353 124.43841451 45.36170384 120.95288086 45.35162354 C114.1129673 45.33016903 107.27316661 45.29603 100.43334961 45.25396729 C100.43611499 46.21825999 100.43888037 47.1825527 100.44172955 48.1760664 C100.5082965 71.62781516 100.55761182 95.07955168 100.58878613 118.53137493 C100.60426207 129.87245222 100.62536553 141.21346714 100.65966797 152.55450439 C100.689548 162.43811309 100.70891932 172.32167663 100.71561509 182.20532924 C100.71952971 187.43977086 100.72874479 192.67408326 100.75053978 197.90848351 C100.77088282 202.83402304 100.77718781 207.75937995 100.77267265 212.6849575 C100.77349883 214.49376924 100.77947744 216.30258701 100.79096603 218.11136246 C100.80587609 220.57962924 100.80230882 223.04720514 100.79411316 225.51548767 C100.80285168 226.23242174 100.81159021 226.94935582 100.82059354 227.68801516 C100.78157215 232.03124245 100.11922791 234.80704226 97.43334961 238.25396729 C95.46032715 238.86196899 95.46032715 238.86196899 93.19311523 238.83746338 C91.91664124 238.84173843 91.91664124 238.84173843 90.61437988 238.84609985 C89.69870239 238.82343048 88.7830249 238.80076111 87.83959961 238.77740479 C86.89652954 238.77270172 85.95345947 238.76799866 84.98181152 238.76315308 C81.96491898 238.74178035 78.94977356 238.68515605 75.93334961 238.62896729 C73.90081406 238.61246365 71.8682598 238.59811469 69.83569336 238.58599854 C66.11476162 238.55201865 62.39402218 238.5170644 58.67358398 238.44683838 C57.55131409 238.42754776 57.55131409 238.42754776 56.40637207 238.40786743 C54.43334961 238.25396729 54.43334961 238.25396729 51.43334961 237.25396729 C49.92275025 234.23276856 50.29993676 231.11359753 50.31309509 227.80032349 C50.31224067 227.02273969 50.31138624 226.24515589 50.31050593 225.44400895 C50.30885178 222.82448634 50.31437145 220.20502701 50.31982422 217.58551025 C50.32010613 215.71331789 50.31994828 213.84112541 50.31938171 211.96893311 C50.31909389 206.87416308 50.32498813 201.77941643 50.33195567 196.68465185 C50.33819178 191.36483216 50.33879321 186.04501199 50.33998108 180.72518921 C50.34309363 170.64586633 50.351306 160.56655426 50.36133057 150.48723614 C50.37249406 139.01461627 50.37800275 127.54199589 50.383026 116.06937194 C50.39348867 92.46423106 50.41108665 68.85909978 50.43334961 45.25396729 C49.71116241 45.25840851 48.98897522 45.26284973 48.24490356 45.26742554 C41.44668939 45.30746103 34.64849277 45.33793066 27.85019112 45.35759163 C24.35491034 45.36803926 20.85972677 45.38221612 17.36450195 45.40484619 C13.34837905 45.43068681 9.33235864 45.44043194 5.31616211 45.44927979 C3.42862717 45.46476364 3.42862717 45.46476364 1.50296021 45.4805603 C0.34190765 45.48071136 -0.8191449 45.48086243 -2.01538086 45.48101807 C-3.04130341 45.48545929 -4.06722595 45.48990051 -5.12423706 45.49447632 C-7.56665039 45.25396729 -7.56665039 45.25396729 -9.56665039 43.25396729 C-9.77905524 40.19231664 -9.87060338 37.2234491 -9.86743164 34.16021729 C-9.87171677 33.25775269 -9.87600189 32.35528809 -9.88041687 31.42547607 C-9.88616512 29.5156132 -9.8866568 27.60572843 -9.88232422 25.69586182 C-9.87916298 22.76563395 -9.90262138 19.83641405 -9.92797852 16.90631104 C-9.93025124 15.05344773 -9.93095513 13.2005817 -9.92993164 11.34771729 C-9.93914139 10.46748901 -9.94835114 9.58726074 -9.95783997 8.68035889 C-9.93896484 6.21295166 -9.93896484 6.21295166 -9.56665039 2.25396729 C-5.94824513 -0.15830289 -4.30603102 0.00269966 0 0 Z " fill="#6D6E70" transform="translate(421.566650390625,35.74603271484375)"/>
<path d="M0 0 C9.82546591 8.09867049 15.42227148 17.18886755 20.375 28.75 C20.83390625 29.81605469 21.2928125 30.88210937 21.765625 31.98046875 C27.92190052 49.43047507 26.17082889 72.07315733 18.99609375 89.00390625 C17.87647128 91.29737792 16.64123043 93.53409674 15.375 95.75 C11.745 95.75 8.115 95.75 4.375 95.75 C2.7334951 92.4669902 3.85611376 89.32454967 4.375 85.75 C4.24222656 86.38808594 4.10945312 87.02617187 3.97265625 87.68359375 C3.70775391 88.92302734 3.70775391 88.92302734 3.4375 90.1875 C3.26347656 91.01121094 3.08945313 91.83492188 2.91015625 92.68359375 C2.375 94.75 2.375 94.75 1.375 95.75 C-0.4375 95.8828125 -0.4375 95.8828125 -2.625 95.875 C-3.346875 95.87757813 -4.06875 95.88015625 -4.8125 95.8828125 C-6.625 95.75 -6.625 95.75 -7.625 94.75 C-7.53536938 93.05858344 -7.37922324 91.37040398 -7.1875 89.6875 C-7.08566406 88.76839844 -6.98382813 87.84929687 -6.87890625 86.90234375 C-6.79511719 86.19207031 -6.71132812 85.48179687 -6.625 84.75 C-7.285 84.75 -7.945 84.75 -8.625 84.75 C-8.68558594 85.46027344 -8.74617187 86.17054688 -8.80859375 86.90234375 C-8.89238281 87.82144531 -8.97617188 88.74054688 -9.0625 89.6875 C-9.18431641 91.06228516 -9.18431641 91.06228516 -9.30859375 92.46484375 C-9.625 94.75 -9.625 94.75 -10.625 95.75 C-12.14428038 95.82179964 -13.66667482 95.83392007 -15.1875 95.8125 C-16.42693359 95.79896484 -16.42693359 95.79896484 -17.69140625 95.78515625 C-18.64853516 95.76775391 -18.64853516 95.76775391 -19.625 95.75 C-20.94125194 93.11749612 -20.37313658 91.94820944 -19.6875 89.125 C-19.39552734 87.89910156 -19.39552734 87.89910156 -19.09765625 86.6484375 C-18.86369141 85.70871094 -18.86369141 85.70871094 -18.625 84.75 C-19.615 85.245 -19.615 85.245 -20.625 85.75 C-21.275539 87.83611558 -21.275539 87.83611558 -21.6875 90.25 C-22.53106654 94.65606654 -22.53106654 94.65606654 -23.625 95.75 C-25.14428038 95.82179964 -26.66667482 95.83392007 -28.1875 95.8125 C-29.42693359 95.79896484 -29.42693359 95.79896484 -30.69140625 95.78515625 C-31.64853516 95.76775391 -31.64853516 95.76775391 -32.625 95.75 C-32.48392253 94.29119891 -32.33697585 92.83296449 -32.1875 91.375 C-32.06568359 90.15683594 -32.06568359 90.15683594 -31.94140625 88.9140625 C-31.625 86.75 -31.625 86.75 -30.625 84.75 C-31.615 85.245 -31.615 85.245 -32.625 85.75 C-33.31229254 87.86846285 -33.31229254 87.86846285 -33.75 90.3125 C-33.91757813 91.13878906 -34.08515625 91.96507812 -34.2578125 92.81640625 C-34.37898437 93.45449219 -34.50015625 94.09257812 -34.625 94.75 C-38.03994168 95.5305581 -41.12890192 95.79700636 -44.625 95.75 C-44.48237588 94.1872038 -44.33574489 92.62477304 -44.1875 91.0625 C-44.06568359 89.75732422 -44.06568359 89.75732422 -43.94140625 88.42578125 C-43.625 85.75 -43.625 85.75 -43.12890625 83.484375 C-42.40743475 79.56941338 -42.21792519 75.65822522 -42 71.6875 C-41.9484375 70.88505859 -41.896875 70.08261719 -41.84375 69.25585938 C-41.77800781 68.09086914 -41.77800781 68.09086914 -41.7109375 66.90234375 C-41.6701709 66.20101318 -41.6294043 65.49968262 -41.58740234 64.77709961 C-41.55578863 62.39075285 -41.55578863 62.39075285 -42.625 58.75 C-42.955 63.37 -43.285 67.99 -43.625 72.75 C-46.625 71.75 -46.625 71.75 -48.24917603 68.64784241 C-48.5416988 67.99557489 -48.83422157 67.34330738 -49.13560867 66.67127419 C-53.77925793 56.33142926 -60.11335074 42.59346571 -70.98564148 37.68404388 C-83.97033094 33.71482256 -98.49906483 35.21868238 -111.85620117 36.02050781 C-117.13679941 36.30100243 -122.42055504 36.38862111 -127.70703125 36.49414062 C-138.02469193 36.72772843 -148.32141748 37.16969058 -158.625 37.75 C-159.49146667 36.31988027 -160.34281829 34.88059381 -161.1875 33.4375 C-161.66316406 32.63699219 -162.13882813 31.83648437 -162.62890625 31.01171875 C-163.625 28.75 -163.625 28.75 -162.625 25.75 C-134.245 25.75 -105.865 25.75 -76.625 25.75 C-80.61111654 18.53036972 -80.61111654 18.53036972 -85.49116516 17.87025452 C-87.0226977 17.8324389 -88.5554688 17.83271149 -90.0871582 17.86352539 C-90.9266954 17.85274963 -91.7662326 17.84197388 -92.63121033 17.83087158 C-95.39696644 17.80353523 -98.16001752 17.82533542 -100.92578125 17.84765625 C-102.84679352 17.83827095 -104.76779304 17.82581303 -106.68876648 17.81040955 C-111.73768659 17.77816933 -116.78569886 17.78763123 -121.83465576 17.80578613 C-126.98948115 17.81694003 -132.14407355 17.78864453 -137.29882812 17.76367188 C-147.40771416 17.72051114 -157.51608009 17.72140557 -167.625 17.75 C-168.74095016 15.3594052 -169.85682462 12.96877512 -170.97265625 10.578125 C-171.28609985 9.90668457 -171.59954346 9.23524414 -171.92248535 8.54345703 C-178.625 -5.81719568 -178.625 -5.81719568 -178.625 -9.25 C-176.13418025 -10.49540988 -174.44937903 -10.38579802 -171.66160583 -10.40148926 C-170.08671638 -10.41400475 -170.08671638 -10.41400475 -168.48001099 -10.42677307 C-167.32314789 -10.43095749 -166.16628479 -10.43514191 -164.97436523 -10.43945312 C-163.15218727 -10.45189308 -163.15218727 -10.45189308 -161.29319763 -10.46458435 C-158.64676614 -10.48202032 -156.00039288 -10.49767003 -153.35394096 -10.51036072 C-149.16325297 -10.53058566 -144.97263435 -10.55824246 -140.78199768 -10.58703613 C-131.87553113 -10.64717049 -122.96902226 -10.69890581 -114.0625 -10.75 C-104.47117373 -10.80513166 -94.87986873 -10.86185419 -85.28860813 -10.92754889 C-81.12974914 -10.95575889 -76.97089747 -10.97940626 -72.81199157 -10.99947357 C-69.60176917 -11.01612338 -66.39158814 -11.03885007 -63.18139648 -11.06054688 C-62.038703 -11.06473129 -60.89600952 -11.06891571 -59.71868896 -11.07322693 C-15.46246633 -11.41843667 -15.46246633 -11.41843667 0 0 Z M-43.625 44.75 C-42.625 47.75 -42.625 47.75 -42.625 47.75 Z " fill="#F2B01C" transform="translate(178.625,46.25)"/>
<path d="M0 0 C-3.5870916 2.3913944 -5.20795488 2.26076898 -9.47167969 2.28710938 C-10.45033493 2.29735893 -10.45033493 2.29735893 -11.44876099 2.30781555 C-12.86465769 2.32139617 -14.28060334 2.33045422 -15.69655609 2.33552551 C-17.94202146 2.34382446 -20.18708203 2.36434092 -22.43243408 2.38806152 C-27.20489577 2.43628896 -31.9773983 2.46918969 -36.75 2.5 C-42.26822697 2.53573873 -47.78625777 2.57784017 -53.3042984 2.63594055 C-55.50829243 2.65590058 -57.7121335 2.66430846 -59.91619873 2.67224121 C-61.28105204 2.68522628 -62.64590038 2.69874843 -64.01074219 2.71289062 C-65.19416199 2.72018188 -66.37758179 2.72747314 -67.59686279 2.73498535 C-71.2848768 3.02218439 -74.46157765 3.95070834 -78 5 C-80.47422791 5.24050903 -80.47422791 5.24050903 -82.74194336 5.22705078 C-83.60230698 5.22689972 -84.46267059 5.22674866 -85.34910583 5.22659302 C-86.7057711 5.21110916 -86.7057711 5.21110916 -88.08984375 5.1953125 C-89.5066317 5.19106766 -89.5066317 5.19106766 -90.95204163 5.18673706 C-93.94732724 5.17560684 -96.94230586 5.1505156 -99.9375 5.125 C-101.9772092 5.11496095 -104.01692312 5.10583672 -106.05664062 5.09765625 C-111.0378774 5.07569096 -116.01888678 5.04121076 -121 5 C-121.33 5.66 -121.66 6.32 -122 7 C-123.65 7 -125.3 7 -127 7 C-127 5.68 -127 4.36 -127 3 C-127.66 2.67 -128.32 2.34 -129 2 C-122.62232144 1.06121273 -116.39472177 0.83158899 -109.95336914 0.79467773 C-108.87425766 0.78477814 -107.79514618 0.77487854 -106.68333435 0.76467896 C-103.13396352 0.73322436 -99.58457955 0.70835734 -96.03515625 0.68359375 C-93.55707982 0.66299772 -91.07900669 0.64200059 -88.60093689 0.62062073 C-82.08609789 0.56553612 -75.57122766 0.51609328 -69.05633545 0.46777344 C-62.44182431 0.41763517 -55.8273614 0.36180453 -49.21289062 0.30664062 C-39.53395677 0.22694747 -29.85501255 0.14888549 -20.17602539 0.07592773 C-18.67249008 0.06425819 -18.67249008 0.06425819 -17.13858032 0.05235291 C-11.42553086 0.01014088 -5.71320635 -0.00713191 0 0 Z " fill="#E7AC38" transform="translate(137,35)"/>
<path d="M0 0 C7.46099819 7.46099819 7.53059019 22.21432442 7.5625 32 C7.40001159 46.53380231 5.28969415 59.24303524 -2 72 C-5.63 72 -9.26 72 -13 72 C-14.6415049 68.7169902 -13.51888624 65.57454967 -13 62 C-13.13277344 62.63808594 -13.26554688 63.27617187 -13.40234375 63.93359375 C-13.57894531 64.75988281 -13.75554687 65.58617187 -13.9375 66.4375 C-14.11152344 67.26121094 -14.28554687 68.08492188 -14.46484375 68.93359375 C-15 71 -15 71 -16 72 C-18.67058851 72.14115161 -21.32432238 72.04247107 -24 72 C-24 71.67 -24 71.34 -24 71 C-21.69 71 -19.38 71 -17 71 C-16.01 65.555 -16.01 65.555 -15 60 C-13.68 60 -12.36 60 -11 60 C-11 63.3 -11 66.6 -11 70 C-10.01 70 -9.02 70 -8 70 C-7.855625 69.05125 -7.71125 68.1025 -7.5625 67.125 C-7 64 -7 64 -6 62 C-4.68 62 -3.36 62 -2 62 C-2 61.34 -2 60.68 -2 60 C-1.34 60 -0.68 60 0 60 C3.47082825 51.57084568 4.34327578 44.47415722 4.31567383 35.42480469 C4.31252869 33.26966029 4.33595521 31.1159112 4.36132812 28.9609375 C4.3921544 21.91708363 4.08201586 15.51561918 1.64526367 8.81152344 C1 7 1 7 1 5 C0.34 4.67 -0.32 4.34 -1 4 C-0.67 2.68 -0.34 1.36 0 0 Z " fill="#DFA82F" transform="translate(196,70)"/>
<path d="M0 0 C2.15722564 5.55674464 2.05807943 10.10165481 1.77734375 15.9765625 C2.02433901 19.33049814 2.73925787 20.57988441 5 23 C3.68 24.32 2.36 25.64 1 27 C1 25.02 1 23.04 1 21 C0.34 21 -0.32 21 -1 21 C-1.33 19.68 -1.66 18.36 -2 17 C-2.33 21.62 -2.66 26.24 -3 31 C-6.56426906 29.81191031 -7.06844679 28.85879808 -9.13671875 25.81640625 C-9.71357422 24.97142578 -10.29042969 24.12644531 -10.88476562 23.25585938 C-11.47966797 22.36705078 -12.07457031 21.47824219 -12.6875 20.5625 C-13.29400391 19.67755859 -13.90050781 18.79261719 -14.52539062 17.88085938 C-19 11.27212809 -19 11.27212809 -19 9 C-18.34 9 -17.68 9 -17 9 C-16.34 10.65 -15.68 12.3 -15 14 C-14.34 14 -13.68 14 -13 14 C-12.67 14.99 -12.34 15.98 -12 17 C-11.01 17 -10.02 17 -9 17 C-8.95101562 16.39671875 -8.90203125 15.7934375 -8.8515625 15.171875 C-8.77679688 14.37265625 -8.70203125 13.5734375 -8.625 12.75 C-8.55539063 11.96109375 -8.48578125 11.1721875 -8.4140625 10.359375 C-7.98326166 7.90462303 -7.12090052 6.20534899 -6 4 C-6 3.01 -6 2.02 -6 1 C-3.92446352 0.4465236 -2.15634036 0 0 0 Z " fill="#ECAA1F" transform="translate(138,88)"/>
<path d="M0 0 C7.92 0 15.84 0 24 0 C24 0.33 24 0.66 24 1 C13.11 1.495 13.11 1.495 2 2 C2.99 4.97 3.98 7.94 5 11 C35.36 11 65.72 11 97 11 C97.99 14.96 97.99 14.96 99 19 C95.125 15.25 95.125 15.25 94 13 C64.3 12.67 34.6 12.34 4 12 C2.35 9.03 0.7 6.06 -1 3 C-0.67 2.01 -0.34 1.02 0 0 Z " fill="#C89A38" transform="translate(16,72)"/>
<path d="M0 0 ∫C26.4 0 52.8 0 80 0 C80 0.99 80 1.98 80 3 C75.6949909 3.02483806 71.39002049 3.04292512 67.08496094 3.05493164 C65.62238843 3.05994045 64.15982089 3.06674938 62.69726562 3.07543945 C60.58722709 3.08765698 58.47725513 3.09326295 56.3671875 3.09765625 C55.09987793 3.10289307 53.83256836 3.10812988 52.52685547 3.11352539 C49 3 49 3 46.1640625 2.51367188 C41.78036249 1.80199712 37.44244906 1.76507291 33.0078125 1.68359375 C31.58890213 1.6524221 31.58890213 1.6524221 30.1413269 1.62062073 C27.13595459 1.55552415 24.13049899 1.49642664 21.125 1.4375 C19.08072074 1.3942768 17.03644974 1.35066132 14.9921875 1.30664062 C9.99487584 1.1998839 4.99748084 1.09850529 0 1 C0 0.67 0 0.34 0 0 Z " fill="#646363" transform="translate(103,147)"/>
<path d="M0 0 C7.47827876 7.47827876 7.52707834 22.25920274 7.5625 32.0625 C7.48163102 42.21229271 6.25722664 51.37373197 3 61 C2.04884856 57.93448433 2.00154762 56.99450758 2.91796875 53.7421875 C4.57657836 47.70300406 4.33485022 41.48849722 4.31567383 35.27392578 C4.31251702 33.13652335 4.33601945 31.00051307 4.36132812 28.86328125 C4.39220421 21.85145406 4.06755648 15.4901454 1.64526367 8.81591797 C1 7 1 7 1 5 C0.34 4.67 -0.32 4.34 -1 4 C-0.67 2.68 -0.34 1.36 0 0 Z " fill="#D9A93C" transform="translate(196,70)"/>
<path d="M0 0 C0.33 2.31 0.66 4.62 1 7 C1.99 7 2.98 7 4 7 C3.9071875 5.824375 3.9071875 5.824375 3.8125 4.625 C3.874375 3.75875 3.93625 2.8925 4 2 C4.99 1.34 5.98 0.68 7 0 C8.53617912 4.09647766 7.69045256 7.78823937 7 12 C6 13 6 13 3.93359375 13.09765625 C3.10988281 13.08605469 2.28617188 13.07445312 1.4375 13.0625 C0.61121094 13.05347656 -0.21507812 13.04445312 -1.06640625 13.03515625 C-1.70449219 13.02355469 -2.34257812 13.01195312 -3 13 C-4.31625194 10.36749612 -3.74813658 9.19820944 -3.0625 6.375 C-2.86785156 5.55773437 -2.67320312 4.74046875 -2.47265625 3.8984375 C-2.23869141 2.95871094 -2.23869141 2.95871094 -2 2 C-2.66 1.67 -3.32 1.34 -4 1 C-1 0 -1 0 0 0 Z " fill="#E7AA33" transform="translate(162,129)"/>
<path d="M0 0 C8.26013044 -0.47654599 16.68180827 0.99241881 24 5 C24 5.66 24 6.32 24 7 C19.22962983 7.23270098 15.54095456 6.43796895 11 5 C9.69675781 4.63841797 9.69675781 4.63841797 8.3671875 4.26953125 C7.46226562 4.01558594 6.55734375 3.76164062 5.625 3.5 C4.34496094 3.14421875 4.34496094 3.14421875 3.0390625 2.78125 C1 2 1 2 0 0 Z " fill="#E5AE39" transform="translate(144,35)"/>
<path d="M0 0 C0.66 0 1.32 0 2 0 C2.66 1.65 3.32 3.3 4 5 C4.66 5 5.32 5 6 5 C6.66 6.98 7.32 8.96 8 11 C8.66 11 9.32 11 10 11 C10 11.66 10 12.32 10 13 C10.99 13.33 11.98 13.66 13 14 C13 14.99 13 15.98 13 17 C13.66 17.33 14.32 17.66 15 18 C15 14.7 15 11.4 15 8 C15.33 8 15.66 8 16 8 C16 12.62 16 17.24 16 22 C12.43573094 20.81191031 11.93155321 19.85879808 9.86328125 16.81640625 C9.28642578 15.97142578 8.70957031 15.12644531 8.11523438 14.25585938 C7.52033203 13.36705078 6.92542969 12.47824219 6.3125 11.5625 C5.70599609 10.67755859 5.09949219 9.79261719 4.47460938 8.88085938 C0 2.27212809 0 2.27212809 0 0 Z " fill="#DBAC45" transform="translate(119,97)"/>
<path d="M0 0 C0.33 0.66 0.66 1.32 1 2 C1.99 2.33 2.98 2.66 4 3 C3.69201674 4.48011371 3.378482 5.95907325 3.0625 7.4375 C2.88847656 8.26121094 2.71445313 9.08492187 2.53515625 9.93359375 C2 12 2 12 1 13 C-2.00331018 13.14193337 -4.99217134 13.04236378 -8 13 C-7.67 10.03 -7.34 7.06 -7 4 C-6.67 4 -6.34 4 -6 4 C-6 6.31 -6 8.62 -6 11 C-4.35 11 -2.7 11 -1 11 C-1.01160156 10.28972656 -1.02320313 9.57945312 -1.03515625 8.84765625 C-1.04869141 7.46900391 -1.04869141 7.46900391 -1.0625 6.0625 C-1.07410156 5.14597656 -1.08570313 4.22945312 -1.09765625 3.28515625 C-1 1 -1 1 0 0 Z " fill="#DEA93F" transform="translate(154,129)"/>
<path d="M0 0 C2.125 0.9375 2.125 0.9375 4 2 C2.68 2.33 1.36 2.66 0 3 C0.54140625 4.01320313 0.54140625 4.01320313 1.09375 5.046875 C1.5578125 5.93890625 2.021875 6.8309375 2.5 7.75 C2.9640625 8.63171875 3.428125 9.5134375 3.90625 10.421875 C5 13 5 13 5 17 C5.66 17 6.32 17 7 17 C8.66670026 20.52948291 9.13583456 22.28272326 8 26 C6.32414653 22.40003498 4.66091487 18.79437864 3 15.1875 C2.28457031 13.65125977 2.28457031 13.65125977 1.5546875 12.08398438 C1.10351562 11.10107422 0.65234375 10.11816406 0.1875 9.10546875 C-0.23144531 8.19949951 -0.65039062 7.29353027 -1.08203125 6.36010742 C-2 4 -2 4 -2 1 C-1.34 0.67 -0.68 0.34 0 0 Z " fill="#E4B042" transform="translate(2,36)"/>
<path d="M0 0 C10.23 0 20.46 0 31 0 C31 0.33 31 0.66 31 1 C29.7934375 1.06058594 28.586875 1.12117188 27.34375 1.18359375 C25.72915876 1.26807818 24.11457586 1.35272211 22.5 1.4375 C21.31277344 1.49647461 21.31277344 1.49647461 20.1015625 1.55664062 C16.22137124 1.76337213 12.4346825 2.06308822 8.59375 2.66015625 C5 3 5 3 2 1 C2.33 2.65 2.66 4.3 3 6 C1 4 1 4 0 0 Z " fill="#E7A82D" transform="translate(17,73)"/>
<path d="M0 0 C1.98 0.66 3.96 1.32 6 2 C5.2884375 2.61875 5.2884375 2.61875 4.5625 3.25 C2.83733482 5.182185 2.43415125 6.48192275 2 9 C2.66 9.33 3.32 9.66 4 10 C3.01 10.495 3.01 10.495 2 11 C3.65 11.33 5.3 11.66 7 12 C7 12.33 7 12.66 7 13 C4.36 13 1.72 13 -1 13 C-0.67 9.7 -0.34 6.4 0 3 C-0.66 2.67 -1.32 2.34 -2 2 C-1.34 1.34 -0.68 0.68 0 0 Z " fill="#EAAD31" transform="translate(172,128)"/>
<path d="M0 0 C0.33 0 0.66 0 1 0 C1.85350034 3.71443346 2.16320548 7.19061938 2.1875 11 C2.20167969 12.010625 2.21585938 13.02125 2.23046875 14.0625 C1.99304931 17.0885919 1.27324223 19.26227757 0 22 C-0.66 22 -1.32 22 -2 22 C-1.90912109 21.12601563 -1.90912109 21.12601563 -1.81640625 20.234375 C-1.12772567 13.49590043 -0.54522381 6.75149484 0 0 Z " fill="#DBA53C" transform="translate(137,115)"/>
<path d="M0 0 C10.89 0 21.78 0 33 0 C33.66 2.64 34.32 5.28 35 8 C31.125 4.25 31.125 4.25 30 2 C15.15 1.505 15.15 1.505 0 1 C0 0.67 0 0.34 0 0 Z " fill="#D5A63D" transform="translate(80,83)"/>
<path d="M0 0 C1.98 0 3.96 0 6 0 C6 0.66 6 1.32 6 2 C13.92 2 21.84 2 30 2 C30 2.33 30 2.66 30 3 C19.44 3 8.88 3 -2 3 C-1.34 2.67 -0.68 2.34 0 2 C0 1.34 0 0.68 0 0 Z " fill="#7A7978" transform="translate(43,92)"/>
<path d="M0 0 C5.15393275 2.31926974 12.35815692 5.71631384 15 11 C12.36 10.67 9.72 10.34 7 10 C6.67 8.68 6.34 7.36 6 6 C5.071875 5.9071875 5.071875 5.9071875 4.125 5.8125 C2 5 2 5 0.75 2.4375 C0.5025 1.633125 0.255 0.82875 0 0 Z " fill="#ECB135" transform="translate(169,41)"/>
<path d="M0 0 C0.79921875 0.00902344 1.5984375 0.01804688 2.421875 0.02734375 C3.02515625 0.03894531 3.6284375 0.05054688 4.25 0.0625 C4.25 0.7225 4.25 1.3825 4.25 2.0625 C2.6 2.0625 0.95 2.0625 -0.75 2.0625 C-1.08 3.3825 -1.41 4.7025 -1.75 6.0625 C-3.4 6.0625 -5.05 6.0625 -6.75 6.0625 C-6.75 4.7425 -6.75 3.4225 -6.75 2.0625 C-7.41 1.7325 -8.07 1.4025 -8.75 1.0625 C-5.75519083 0.1901588 -3.11424089 -0.04579766 0 0 Z " fill="#F3B923" transform="translate(16.75,35.9375)"/>
<path d="M0 0 C0 2 0 2 -1.375 3.5 C-1.91125 3.995 -2.4475 4.49 -3 5 C-4.51045259 6.51045259 -6.00830865 8.03351637 -7.5 9.5625 C-10 12 -10 12 -12 13 C-11.84825965 7.99256861 -9.09792829 5.72452403 -5.69140625 2.453125 C-3.7079876 0.74912561 -2.63942347 0 0 0 Z " fill="#777777" transform="translate(258,53)"/>
<path d="M0 0 C0 3 0 3 -2 6 C-2.07905064 8.33199388 -2.08798769 10.66832622 -2 13 C-3.98 13.99 -3.98 13.99 -6 15 C-6.31433405 9.76109914 -5.80778856 6.47166327 -3 2 C-2.01 1.34 -1.02 0.68 0 0 Z " fill="#747475" transform="translate(242,70)"/>
<path d="M0 0 C0.66 1.32 1.32 2.64 2 4 C2.53625 4.845625 3.0725 5.69125 3.625 6.5625 C5 9 5 9 5 12 C3.5 13.6875 3.5 13.6875 2 15 C2 13.02 2 11.04 2 9 C1.34 9 0.68 9 0 9 C0 6.03 0 3.06 0 0 Z " fill="#E0A532" transform="translate(137,100)"/>
<path d="M0 0 C1.5912689 4.873261 2.21192221 8.80790596 2 14 C0 11 0 11 -0.375 7.4375 C-0.59722815 3.92071493 -0.59722815 3.92071493 -3.0625 2.5625 C-3.701875 2.376875 -4.34125 2.19125 -5 2 C-2 0 -2 0 0 0 Z " fill="#757476" transform="translate(726,184)"/>
<path d="M0 0 C0.66 0 1.32 0 2 0 C4.48351814 5.55139349 3.85330338 10.16524985 3 16 C1.63803575 13.33722092 0.47943141 10.97247474 0 8 C0.33 7.01 0.66 6.02 1 5 C0.60602665 2.36195411 0.60602665 2.36195411 0 0 Z " fill="#F4B630" transform="translate(136,88)"/>
<path d="M0 0 C0.99 1.32 1.98 2.64 3 4 C0.53721199 6.46278801 -1.70676982 6.99771255 -5 8 C-3.62845496 5.04590299 -2.01136276 2.55991624 0 0 Z " fill="#646466" transform="translate(245,64)"/>
<path d="M0 0 C0.99 0.495 0.99 0.495 2 1 C2 1.66 2 2.32 2 3 C4.31 3 6.62 3 9 3 C9.33 2.34 9.66 1.68 10 1 C9.67 2.32 9.34 3.64 9 5 C6.03 5 3.06 5 0 5 C0 3.35 0 1.7 0 0 Z " fill="#D8AB40" transform="translate(134,137)"/>
<path d="M0 0 C0.33 0.66 0.66 1.32 1 2 C0.0625 4.625 0.0625 4.625 -1 7 C-3 7 -3 7 -4.625 5.5 C-5.07875 5.005 -5.5325 4.51 -6 4 C-5.67 3.01 -5.34 2.02 -5 1 C-3.35 0.67 -1.7 0.34 0 0 Z " fill="#E8AC2F" transform="translate(197,132)"/>
<path d="M0 0 C3.26008643 3.16952847 6.22237877 6.39937989 9 10 C8.67 10.66 8.34 11.32 8 12 C7.01 11.34 6.02 10.68 5 10 C5 9.01 5 8.02 5 7 C4.34 7 3.68 7 3 7 C0 2.61538462 0 2.61538462 0 0 Z " fill="#DDAF43" transform="translate(184,52)"/>
<path d="M0 0 C0.33 0 0.66 0 1 0 C1 2.97 1 5.94 1 9 C0.01 8.67 -0.98 8.34 -2 8 C-2.33 6.35 -2.66 4.7 -3 3 C-2.01 2.67 -1.02 2.34 0 2 C0 1.34 0 0.68 0 0 Z " fill="#F2B129" transform="translate(133,106)"/>
<path d="M0 0 C0 0.33 0 0.66 0 1 C-4.92737019 2.97094808 -8.78020872 3.1799928 -14 3 C-10.17190555 -0.82809445 -5.1539534 -0.10105791 0 0 Z " fill="#79797A" transform="translate(306,36)"/>
<path d="M0 0 C0.99 0.33 1.98 0.66 3 1 C3.94921875 3.06640625 3.94921875 3.06640625 4.6875 5.5625 C4.93886719 6.38878906 5.19023437 7.21507813 5.44921875 8.06640625 C5.63097656 8.70449219 5.81273437 9.34257813 6 10 C5.34 10 4.68 10 4 10 C3.32845067 8.71086513 2.66291141 7.41859796 2 6.125 C1.62875 5.40570313 1.2575 4.68640625 0.875 3.9453125 C0 2 0 2 0 0 Z " fill="#D5B04F" transform="translate(15,73)"/>
<path d="M0 0 C3.51005335 1.6380249 6.45543849 3.03134491 9 6 C6.69 5.67 4.38 5.34 2 5 C1.34 3.35 0.68 1.7 0 0 Z " fill="#E2AF3C" transform="translate(169,41)"/>
<path d="M0 0 C0.66 0 1.32 0 2 0 C3.31223496 3.93670488 2.24296256 6.12488144 1 10 C0.34 9.67 -0.32 9.34 -1 9 C-0.67 6.03 -0.34 3.06 0 0 Z " fill="#767676" transform="translate(203,229)"/>
<path d="M0 0 C0.99 0 1.98 0 3 0 C3 3.63 3 7.26 3 11 C2.67 11 2.34 11 2 11 C1.34 7.37 0.68 3.74 0 0 Z " fill="#F5B02B" transform="translate(132,89)"/>
<path d="M0 0 C0.66 0.99 1.32 1.98 2 3 C2.66 2.67 3.32 2.34 4 2 C3.67 3.65 3.34 5.3 3 7 C1.68 7 0.36 7 -1 7 C-0.67 4.69 -0.34 2.38 0 0 Z " fill="#68686A" transform="translate(235,81)"/>
<path d="M0 0 C2.475 0.495 2.475 0.495 5 1 C4.67 1.99 4.34 2.98 4 4 C4 3.34 4 2.68 4 2 C1.48916886 3.25541557 1.12874554 4.50063488 0 7 C0 4.69 0 2.38 0 0 Z " fill="#E1A332" transform="translate(144,129)"/>
</svg>
