<svg xmlns="http://www.w3.org/2000/svg" width="787" height="317">
  <path fill="#6D6E70" d="M646.64 35.875c10.766-.252 21.907.621 31.36 6.125l2.113 1.207c10.991 7.182 13.684 20.74 16.887 32.668.468 1.703.937 3.405 1.407 5.107 4.497 16.368 8.789 32.792 13.1 49.209a5453.205 5453.205 0 0 0 12.52 46.796l1.91 7.03C729.755 198.074 733.732 212.07 738 226h1l.007-2.912c.059-23.36.135-46.719.229-70.078.045-11.296.084-22.592.11-33.889.023-9.843.057-19.686.103-29.53.024-5.214.042-10.428.049-15.642.006-4.904.026-9.808.056-14.713.01-1.803.013-3.606.011-5.41-.002-2.455.015-4.91.036-7.366l-.014-2.178c.069-4.818.069-4.818 1.663-6.966 2.206-1.66 3.388-1.68 6.13-1.657l2.668.001 2.87.047 2.947.013c3.107.017 6.215.054 9.322.093 2.107.015 4.213.028 6.319.04 5.165.034 10.33.085 15.494.147.14 27.73.246 55.459.31 83.188.032 12.876.074 25.751.143 38.627.06 11.224.098 22.447.112 33.671a2951.5 2951.5 0 0 0 .07 17.825c.04 5.596.053 11.192.044 16.788.001 2.05.013 4.1.036 6.15.211 19.713.211 19.713-6.715 27.751l-1.603 2.08c-4.804 6.172-10.832 10.15-18.585 11.458-5.953.721-11.902.686-17.89.702-2.218.01-4.436.041-6.654.072-12.266.095-20.977-1.039-30.014-9.878-13.142-14.19-15.9-36.723-20.879-54.872l-1.07-3.887a6519.108 6519.108 0 0 1-13.633-50.263c-3.832-14.368-7.766-28.707-11.735-43.037l-.861-3.112-2.424-8.74-.724-2.61c-.44-1.584-.883-3.166-1.328-4.748a215.03 215.03 0 0 1-1.138-4.275c-.43-1.646-.939-3.271-1.462-4.89l-2-1 .008 2.928c.067 23.484.116 46.969.147 70.453.016 11.357.037 22.714.071 34.07.03 9.896.05 19.792.056 29.689.004 5.242.013 10.484.035 15.726.02 4.93.027 9.86.022 14.791.001 1.813.007 3.626.019 5.439.014 2.469.011 4.937.003 7.406l.026 2.19c-.026 2.921-.05 4.84-1.786 7.254-2.07 1.362-3.37 1.422-5.841 1.41l-2.579.01-2.775-.038-2.858-.006a862.04 862.04 0 0 1-5.981-.04c-3.055-.032-6.11-.042-9.165-.048l-5.808-.03-2.775-.014-2.579-.029-2.267-.02C603 274 603 274 600 273c-1.184-3.552-1.142-6.764-1.134-10.46l-.007-2.322c-.006-2.577-.005-5.153-.004-7.73l-.01-5.534a9206.25 9206.25 0 0 1-.012-15.065l-.006-9.426c-.009-10.978-.013-21.955-.012-32.932 0-10.204-.01-20.407-.026-30.61-.013-8.776-.018-17.552-.018-26.327 0-5.234-.002-10.467-.013-15.701-.01-4.936-.01-9.873-.003-14.809.002-1.799 0-3.598-.007-5.397-.028-8.75.158-17.378 1.158-26.078l.241-2.104c.693-5.4 2.001-9.878 4.853-14.505l1.242-2.102c5.648-8.52 14-12.255 23.75-14.375 5.55-.965 11.03-1.382 16.649-1.648ZM29.912 91.861l2.096.006 2.175-.003c1.531 0 3.063.001 4.595.006 2.289.005 4.578 0 6.867-.007 9.454-.005 18.95.07 28.355 1.137 1.91 1.91 1.13 5.338 1.133 7.867l.003 2.146c0 1.515-.001 3.03-.006 4.545-.005 2.245 0 4.49.007 6.735.002 7.945-.2 15.853-.645 23.786l-.143 2.62c-.115 2.1-.232 4.2-.349 6.301l1.669-.036a3554.35 3554.35 0 0 1 40.345-.638c6.505-.067 13.007-.159 19.51-.307 6.284-.142 12.565-.219 18.85-.252a368.5 368.5 0 0 0 7.17-.141c19.706-.558 19.706-.558 25.53 4.203 3.124 3.097 5.5 6.513 7.926 10.171a133.642 133.642 0 0 0 4 4.312c10.394 12.085 11.867 28.403 11 43.688-1.768 19.133-5.77 38.251-20.36 51.898-20.919 16.65-46.352 14.267-71.656 14.305l-3.852.009c-6.017.013-12.034.023-18.052.027-6.915.004-13.831.022-20.747.05-6.023.025-12.047.033-18.071.035-2.554.003-5.107.01-7.66.024-3.554.017-7.108.015-10.662.008l-3.195.028-2.93-.017-2.54.005c-2.98-.487-4.244-1.116-6.275-3.372-.495-3.146-.495-3.146-.488-7.112l-.012-2.208c-.01-2.448.01-4.896.03-7.345a2307.289 2307.289 0 0 1 .031-19.55c.022-4.977.021-9.955.023-14.933.007-8.358.028-16.715.06-25.073.04-10.743.057-21.485.067-32.227.008-9.22.025-18.439.045-27.658l.016-8.915c.009-4.66.023-9.32.042-13.981.006-1.716.01-3.431.013-5.146.004-2.332.014-4.663.026-6.994l.013-3.963c.22-4.736 1.74-4.012 6.046-4.034ZM74 178a75.498 75.498 0 0 0-.13 4.687l-.009 3.024.006 3.289-.003 3.352c0 2.343.001 4.687.006 7.03.005 3.602 0 7.204-.007 10.805 0 2.271.002 4.542.004 6.813l-.006 3.29.01 3.022.002 2.676c-.096 2.01-.096 2.01 1.127 3.012 2.34.116 4.653.168 6.995.177l2.217.02c2.433.02 4.867.031 7.3.041l2.515.013c4.397.02 8.793.035 13.19.044 4.538.011 9.076.046 13.615.085 3.49.027 6.981.035 10.472.038 1.672.005 3.345.017 5.017.035 2.346.025 4.691.024 7.037.017l2.084.039c4.952-.053 7.72-1.458 11.558-4.509 6.719-7.616 7.433-17.022 7.25-26.777-.48-6.196-1.69-11.24-5.562-16.16-5.372-4.123-9.463-5.438-16.238-5.42l-2.215-.006c-2.397-.003-4.794.016-7.192.035-1.67.003-3.341.005-5.012.006-3.49.004-6.981.019-10.472.04-4.484.03-8.968.04-13.451.044-3.445.005-6.889.014-10.333.026-1.654.006-3.309.01-4.963.015-2.303.006-4.606.02-6.909.036l-3.976.02c-2.817-.193-2.817-.193-3.927 1.141ZM320.387 35.734l6.106-.005c4.235-.003 8.47 0 12.705.01 5.432.012 10.863.005 16.295-.007 4.189-.007 8.378-.005 12.567 0 2.004.002 4.008 0 6.013-.005 2.788-.005 5.575.003 8.363.014l2.508-.012c3.874.029 5.757.071 9.056 2.271.36 1.835.36 1.835.34 4.083v2.547l-.047 2.753-.013 2.816c-.017 2.976-.054 5.95-.092 8.926-.016 2.014-.03 4.029-.042 6.043-.033 4.944-.084 9.888-.146 14.832-3.402 1.134-5.97 1.113-9.557 1.098l-2.007-.005c-1.44-.004-2.88-.01-4.321-.018-2.3-.013-4.598-.02-6.897-.024-5.725-.013-11.45-.037-17.175-.061-22.734-.192-22.734-.192-45.457.346l-2.173.078c-7.18.406-11.904 3.226-16.976 8.082-7.422 8.859-8.578 22.45-8.614 33.548l-.02 2.698c-.02 2.933-.031 5.867-.041 8.801l-.013 3.05c-.02 5.33-.035 10.66-.044 15.99-.011 5.482-.046 10.965-.085 16.447-.027 4.236-.035 8.471-.038 12.707-.005 2.02-.017 4.04-.035 6.06-.234 17.152-.234 17.152 6.578 32.64 9.522 8.488 21.684 7.134 33.652 7.102 2.02.01 4.038.022 6.057.036 5.287.032 10.574.043 15.862.047 8.487.008 16.973.044 25.46.092 2.962.012 5.924.012 8.886.01l5.423.02 2.498-.012c3.87.028 5.741.07 9.037 2.268.304 3.098.42 5.993.398 9.094l.01 2.734c.001 1.91-.004 3.82-.017 5.73-.016 2.93 0 5.86.02 8.79-.003 1.853-.007 3.705-.013 5.558l.019 2.668c-.029 2.467-.029 2.467-.417 6.426-3.707 2.471-6.526 2.275-10.813 2.243l-2.412.006c-2.638.003-5.277-.007-7.916-.019a7032.03 7032.03 0 0 0-5.529 0c-3.874-.002-7.747-.01-11.621-.024-4.925-.017-9.85-.021-14.776-.02-3.814 0-7.629-.006-11.443-.013a4108.13 4108.13 0 0 0-5.44-.006c-25.218-.022-49.024-.674-69.05-18.167l-1.758-1.473c-12.273-11.16-21.198-28.561-22.434-45.099-.08-2.847-.101-5.689-.099-8.537l-.02-3.256a2234.98 2234.98 0 0 1-.025-10.6l-.02-7.432c-.012-5.19-.016-10.381-.015-15.572 0-6.606-.027-13.212-.061-19.819-.023-5.12-.026-10.239-.025-15.358-.003-2.433-.011-4.866-.027-7.299-.15-25.703 2.787-46.308 21.382-65.516 19.737-18.404 42.97-20.365 68.489-20.305ZM421.567 35.746l2.03-.01c2.25-.007 4.5-.001 6.75.005 1.612-.002 3.223-.006 4.835-.01 4.38-.01 8.76-.006 13.14 0 4.579.005 9.158 0 13.737-.002 7.69-.004 15.38 0 23.07.01 8.898.011 17.795.008 26.692-.003 7.633-.01 15.265-.01 22.897-.006 4.562.004 9.123.004 13.684-.003 4.288-.005 8.576-.001 12.864.01 1.576.003 3.151.002 4.727-.002 2.147-.006 4.294.001 6.44.011l3.645.002C579 36 579 36 582 38c.291 3.099.396 5.994.363 9.094l.002 2.734c-.003 1.91-.012 3.82-.029 5.73-.023 2.93-.02 5.86-.014 8.79a3197.46 3197.46 0 0 1-.021 5.558l.003 2.668c-.073 6.195-.073 6.195-2.304 8.426-2.442.24-2.442.24-5.551.227h-3.519l-3.813-.032-3.892-.008c-3.417-.008-6.833-.028-10.249-.05-3.485-.02-6.97-.03-10.456-.04-6.84-.02-13.68-.055-20.52-.097l.008 2.922c.067 23.452.116 46.904.147 70.355.016 11.341.037 22.682.071 34.024.03 9.883.05 19.767.056 29.65.004 5.235.013 10.47.035 15.704.02 4.925.027 9.85.022 14.776.001 1.809.007 3.618.019 5.426.015 2.469.011 4.936.003 7.405l.026 2.172c-.039 4.343-.701 7.12-3.387 10.566-1.973.608-1.973.608-4.24.583l-2.579.01-2.775-.07-2.858-.014c-3.016-.021-6.032-.078-9.048-.134-2.033-.017-4.065-.03-6.098-.043-3.72-.034-7.441-.069-11.162-.14l-2.267-.038C476 274 476 274 473 273c-1.51-3.021-1.133-6.14-1.12-9.454l-.003-2.356c-.001-2.62.004-5.239.01-7.858l-.001-5.617c0-5.095.006-10.19.013-15.284.006-5.32.006-10.64.008-15.96.003-10.08.011-20.158.021-30.238.011-11.472.017-22.945.022-34.418.01-23.605.028-47.21.05-70.815l-2.188.013c-6.799.04-13.597.071-20.395.09-3.495.011-6.99.025-10.486.048-4.016.026-8.032.035-12.048.044l-3.813.032h-3.519l-3.109.014C414 81 414 81 412 79c-.212-3.062-.304-6.03-.3-9.094l-.014-2.734c-.006-1.91-.006-3.82-.002-5.73.003-2.93-.02-5.86-.045-8.79-.003-1.853-.003-3.705-.002-5.558l-.028-2.668c.019-2.467.019-2.467.391-6.426 3.618-2.412 5.26-2.251 9.567-2.254Z"/>
  <path fill="#F2B01C" d="M178.625 46.25C188.45 54.349 194.047 63.439 199 75l1.39 3.23c6.157 17.45 4.406 40.093-2.769 57.024-1.12 2.293-2.355 4.53-3.621 6.746h-11c-1.642-3.283-.519-6.425 0-10l-.402 1.934-.536 2.504-.527 2.496C181 141 181 141 180 142c-1.813.133-1.813.133-4 .125l-2.188.008C172 142 172 142 171 141c.09-1.691.246-3.38.438-5.063l.308-2.785L172 131h-2l-.184 2.152-.254 2.786-.246 2.777C169 141 169 141 168 142c-1.52.072-3.042.084-4.563.063l-2.503-.028L159 142c-1.316-2.633-.748-3.802-.063-6.625l.59-2.477L160 131l-2 1c-.65 2.086-.65 2.086-1.063 4.5-.843 4.406-.843 4.406-1.937 5.5-1.52.072-3.042.084-4.563.063l-2.503-.028L146 142c.141-1.459.288-2.917.438-4.375l.246-2.46C147 133 147 133 148 131l-2 1c-.687 2.118-.687 2.118-1.125 4.563l-.508 2.503L144 141c-3.415.78-6.504 1.047-10 1 .143-1.563.29-3.125.438-4.688l.246-2.636c.316-2.676.316-2.676.812-4.942.722-3.915.911-7.826 1.129-11.797l.156-2.431.133-2.354.124-2.125c.031-2.386.031-2.386-1.038-6.027l-1 14c-3-1-3-1-4.624-4.102l-.887-1.977c-4.643-10.34-10.977-24.078-21.85-28.987-12.984-3.97-27.513-2.465-40.87-1.663-5.28.28-10.565.368-15.851.473C40.6 82.978 30.304 83.42 20 84c-.866-1.43-1.718-2.87-2.563-4.313l-1.44-2.425C15 75 15 75 16 72h86c-3.986-7.22-3.986-7.22-8.866-7.88a102.608 102.608 0 0 0-4.596-.006l-2.544-.033a461.845 461.845 0 0 0-8.295.017c-1.92-.01-3.842-.022-5.763-.038-5.049-.032-10.097-.022-15.146-.004-5.154.01-10.31-.017-15.464-.042A4272.304 4272.304 0 0 0 11 64l-3.348-7.172-.95-2.035C0 40.433 0 40.433 0 37c2.49-1.245 4.176-1.136 6.963-1.151l3.182-.026 3.506-.012 3.68-.026c2.647-.017 5.294-.033 7.94-.045 4.19-.02 8.381-.048 12.572-.077 8.906-.06 17.813-.112 26.72-.163 9.59-.055 19.182-.112 28.773-.178 4.16-.028 8.318-.051 12.477-.071 3.21-.017 6.42-.04 9.63-.062l3.463-.012c44.257-.345 44.257-.345 59.719 11.073ZM135 91l1 3Z"/>
  <path fill="#E7AC38" d="M137 35c-3.587 2.391-5.208 2.26-9.472 2.287l-1.977.02a706.84 706.84 0 0 1-4.248.029c-2.245.008-4.49.028-6.735.052-4.773.048-9.545.081-14.318.112-5.518.036-11.036.078-16.554.136-2.204.02-4.408.028-6.612.036l-4.095.04-3.586.023C65.715 38.022 62.538 38.951 59 40c-2.474.24-2.474.24-4.742.227h-2.607l-2.74-.032-2.863-.008c-2.995-.011-5.99-.036-8.986-.062-2.04-.01-4.079-.02-6.119-.027-4.98-.022-9.962-.057-14.943-.098l-1 2h-5v-4l-2-1c6.378-.939 12.605-1.168 19.047-1.205l3.27-.03c3.549-.032 7.098-.057 10.648-.081l7.434-.063c6.515-.055 13.03-.105 19.545-.153 6.614-.05 13.229-.106 19.843-.161 9.679-.08 19.358-.158 29.037-.231l3.037-.024c5.713-.042 11.426-.06 17.139-.052Z"/>
  <path fill="#DFA82F" d="M196 70c7.461 7.461 7.53 22.214 7.563 32-.163 14.534-2.273 27.243-9.563 40h-11c-1.642-3.283-.519-6.425 0-10l-.402 1.934-.536 2.504-.527 2.496C181 141 181 141 180 142c-2.67.141-5.324.042-8 0v-1h7l2-11h4v10h3l.438-2.875C189 134 189 134 190 132h4v-2h2c3.47-8.43 4.343-15.526 4.316-24.575-.003-2.155.02-4.31.045-6.464.031-7.044-.279-13.445-2.716-20.15C197 77 197 77 197 75l-2-1 1-4Z"/>
  <path fill="#ECAA1F" d="M138 88c2.157 5.557 2.058 10.102 1.777 15.977.247 3.353.962 4.603 3.223 7.023l-4 4v-6h-2l-1-4-1 14c-3.564-1.188-4.068-2.141-6.137-5.184l-1.748-2.56-1.802-2.694-1.838-2.681C119 99.272 119 99.272 119 97h2l2 5h2l1 3h3l.148-1.828.227-2.422c.07-.789.14-1.578.21-2.39.432-2.455 1.294-4.155 2.415-6.36v-3c2.076-.553 3.844-1 6-1Z"/>
  <path fill="#C89A38" d="M16 72h24v1l-22 1 3 9h92l2 8c-3.875-3.75-3.875-3.75-5-6l-90-1-5-9 1-3Z"/>
  <path fill="#D9A93C" d="M196 70c7.478 7.478 7.527 22.26 7.563 32.063-.081 10.15-1.306 19.31-4.563 28.937-.951-3.066-.998-4.005-.082-7.258 1.659-6.039 1.417-12.254 1.398-18.468-.003-2.137.02-4.273.045-6.41.031-7.013-.293-13.374-2.716-20.048C197 77 197 77 197 75l-2-1 1-4Z"/>
  <path fill="#E7AA33" d="m162 129 1 7h3l-.188-2.375L166 131l3-2c1.536 4.096.69 7.788 0 12-1 1-1 1-3.066 1.098l-2.496-.036-2.504-.027L159 142c-1.316-2.633-.748-3.802-.063-6.625l.59-2.477L160 131l-2-1c3-1 3-1 4-1Z"/>
  <path fill="#E5AE39" d="M144 35c8.26-.477 16.682.992 24 5v2c-4.77.233-8.459-.562-13-2l-2.633-.73-2.742-.77-2.586-.719C145 37 145 37 144 35Z"/>
  <path fill="#DBAC45" d="M119 97h2l2 5h2l2 6h2v2l3 1v3l2 1v-10h1v14c-3.564-1.188-4.068-2.141-6.137-5.184l-1.748-2.56-1.802-2.694-1.838-2.681C119 99.272 119 99.272 119 97Z"/>
  <path fill="#DEA93F" d="m154 129 1 2 3 1c-.308 1.48-.622 2.96-.938 4.438l-.527 2.496C156 141 156 141 155 142c-3.003.142-5.992.042-9 0l1-9h1v7h5l-.035-2.152-.028-2.786-.035-2.777C153 130 153 130 154 129Z"/>
  <path fill="#E4B042" d="M2 36c2.125.938 2.125.938 4 2l-4 1 1.094 2.047L4.5 43.75l1.406 2.672C7 49 7 49 7 53h2c1.667 3.53 2.136 5.283 1 9-1.676-3.6-3.34-7.206-5-10.813l-1.445-3.103-1.368-2.979L.919 42.36C0 40 0 40 0 37l2-1Z"/>
  <path fill="#E7A82D" d="M17 73h31v1l-3.656.184-4.844.254-2.398.119c-3.88.206-7.667.506-11.508 1.103C22 76 22 76 19 74l1 5c-2-2-2-2-3-6Z"/>
  <path fill="#EAAD31" d="m172 128 6 2-1.438 1.25c-1.725 1.932-2.128 3.232-2.562 5.75l2 1-2 1 5 1v1h-8l1-10-2-1 2-2Z"/>
  <path fill="#DBA53C" d="M137 115h1c.854 3.714 1.163 7.19 1.188 11l.042 3.063c-.237 3.026-.957 5.2-2.23 7.937h-2c.09-.874.09-.874.184-1.766.688-6.738 1.27-13.483 1.816-20.234Z"/>
  <path fill="#D5A63D" d="M80 83h33l2 8c-3.875-3.75-3.875-3.75-5-6l-30-1v-1Z"/>
  <path fill="#7A7978" d="M43 92h6v2h24v1H41l2-1v-2Z"/>
  <path fill="#ECB135" d="M169 41c5.154 2.32 12.358 5.716 15 11l-8-1-1-4-1.875-.188C171 46 171 46 169.75 43.438L169 41Z"/>
  <path fill="#F3B923" d="m16.75 35.938 2.422.027L21 36v2h-5l-1 4h-5v-4l-2-1c2.995-.872 5.636-1.108 8.75-1.063Z"/>
  <path fill="#777" d="M258 53c0 2 0 2-1.375 3.5L255 58a519.108 519.108 0 0 0-4.5 4.563C248 65 248 65 246 66c.152-5.007 2.902-7.275 6.309-10.547C254.292 53.75 255.36 53 258 53Z"/>
  <path fill="#747475" d="M242 70c0 3 0 3-2 6a97.813 97.813 0 0 0 0 7l-4 2c-.314-5.239.192-8.528 3-13l3-2Z"/>
  <path fill="#E0A532" d="m137 100 2 4 1.625 2.563C142 109 142 109 142 112c-1.5 1.688-1.5 1.688-3 3v-6h-2v-9Z"/>
  <path fill="#757476" d="M726 184c1.591 4.873 2.212 8.808 2 14-2-3-2-3-2.375-6.563-.222-3.516-.222-3.516-2.688-4.875L721 186c3-2 3-2 5-2Z"/>
  <path fill="#F4B630" d="M136 88h2c2.484 5.551 1.853 10.165 1 16-1.362-2.663-2.52-5.028-3-8l1-3c-.394-2.638-.394-2.638-1-5Z"/>
  <path fill="#646466" d="m245 64 3 4c-2.463 2.463-4.707 2.998-8 4 1.372-2.954 2.989-5.44 5-8Z"/>
  <path fill="#D8AB40" d="m134 137 2 1v2h7l1-2-1 4h-9v-5Z"/>
  <path fill="#E8AC2F" d="m197 132 1 2c-.938 2.625-.938 2.625-2 5-2 0-2 0-3.625-1.5L191 136l1-3 5-1Z"/>
  <path fill="#DDAF43" d="M184 52c3.26 3.17 6.222 6.4 9 10l-1 2-3-2v-3h-2c-3-4.385-3-4.385-3-7Z"/>
  <path fill="#F2B129" d="M133 106h1v9l-3-1-1-5 3-1v-2Z"/>
  <path fill="#79797A" d="M306 36v1c-4.927 1.97-8.78 2.18-14 2 3.828-3.828 8.846-3.101 14-3Z"/>
  <path fill="#D5B04F" d="m15 73 3 1c.95 2.066.95 2.066 1.688 4.563.25.826.502 1.652.761 2.503L21 83h-2a651.927 651.927 0 0 1-2-3.875l-1.125-2.18C15 75 15 75 15 73Z"/>
  <path fill="#E2AF3C" d="M169 41c3.51 1.638 6.455 3.031 9 6l-7-1-2-5Z"/>
  <path fill="#767676" d="M203 229h2c1.312 3.937.243 6.125-1 10l-2-1 1-9Z"/>
  <path fill="#F5B02B" d="M132 89h3v11h-1l-2-11Z"/>
  <path fill="#68686A" d="m235 81 2 3 2-1-1 5h-4l1-7Z"/>
  <path fill="#E1A332" d="m144 129 5 1-1 3v-2c-2.51 1.255-2.871 2.5-4 5v-7Z"/>
</svg>
