<?xml version="1.0" encoding="UTF-8"?>
<svg version="1.1" xmlns="http://www.w3.org/2000/svg" width="512" height="512">
<path d="M0 0 C31.02 0 62.04 0 94 0 C94 34.65 94 69.3 94 105 C109.84 105 125.68 105 142 105 C140.05703143 108.88593714 137.75753556 112.01553739 135.0625 115.375 C134.06370814 116.6327379 133.06501289 117.89055253 132.06640625 119.1484375 C131.55609863 119.7887793 131.04579102 120.42912109 130.52001953 121.08886719 C128.16616484 124.04838767 125.83357946 127.0244865 123.5 130 C122.58344852 131.16675716 121.6667815 132.33342357 120.75 133.5 C120.29625 134.0775 119.8425 134.655 119.375 135.25 C104.25 154.5 104.25 154.5 102.87573242 156.24902344 C101.95656687 157.41890016 101.03745905 158.58882223 100.1184082 159.75878906 C97.86543906 162.62671157 95.61156277 165.4939099 93.35546875 168.359375 C87.61110851 175.65809154 81.89856277 182.98091126 76.20092773 190.31616211 C71.78708909 195.99594323 67.3480716 201.65517422 62.890625 207.30078125 C60.17506869 210.75824698 57.49843021 214.24547337 54.81933594 217.73120117 C54.3554245 218.3345504 53.89151306 218.93789963 53.4135437 219.55953217 C52.27556672 221.03958887 51.13776575 222.51978091 50 224 C50.91845388 223.99040504 51.83690777 223.98081009 52.78319359 223.97092438 C75.15177998 223.74276586 97.51939374 223.60334436 119.88913536 223.56215668 C130.70730066 223.54010773 141.52377622 223.48825198 152.34130859 223.36572266 C161.77227959 223.25897497 171.20159349 223.20866549 180.63318312 223.22555113 C185.62606388 223.23253387 190.61525674 223.21165344 195.60743332 223.12312317 C200.31231773 223.04058082 205.01137941 223.03383217 209.71666336 223.08387566 C211.43804305 223.08907081 213.15976353 223.06715039 214.88037109 223.01533699 C227.51418478 222.65719093 227.51418478 222.65719093 231.6445775 226.54996681 C234.68759545 230.38398128 236.88105931 234.56961626 238.97916627 238.9736805 C240.57687453 242.14507591 242.55159418 244.98108085 244.5625 247.90625 C245.29090088 248.99043213 246.01930176 250.07461426 246.76977539 251.19165039 C247.50574951 252.28340576 248.24172363 253.37516113 249 254.5 C254.17976889 262.21738705 259.30410329 269.95355894 264.17504883 277.87084961 C268.06858272 284.17337966 272.12653748 290.36699371 276.1875 296.5625 C276.91090576 297.66625977 277.63431152 298.77001953 278.37963867 299.90722656 C279.851085 302.15135521 281.32315001 304.39507707 282.79541016 306.63867188 C286.32928456 312.02514901 289.85298527 317.41826323 293.375 322.8125 C294.31122192 324.24348022 294.31122192 324.24348022 295.26635742 325.70336914 C295.84619385 326.59145264 296.42603027 327.47953613 297.0234375 328.39453125 C297.78019775 329.55239136 297.78019775 329.55239136 298.55224609 330.73364258 C303 337.69629005 303 337.69629005 303 340 C278.91 340 254.82 340 230 340 C230 396.76 230 453.52 230 512 C109.22 512 -11.56 512 -136 512 C-136 455.24 -136 398.48 -136 340 C-160.09 340 -184.18 340 -209 340 C-207.3088285 335.77207125 -205.41209107 332.18419332 -203 328.375 C-202.57847656 327.70404297 -202.15695313 327.03308594 -201.72265625 326.34179688 C-196.88289691 318.70677487 -191.82806381 311.21283273 -186.7963562 303.70373535 C-182.46134496 297.23278009 -178.13989903 290.76284014 -174.0625 284.125 C-169.42040555 276.56901878 -164.5554232 269.16143758 -159.6875 261.75 C-159.27607758 261.12348541 -158.86465515 260.49697083 -158.44076538 259.85147095 C-156.79997043 257.35313172 -155.15893104 254.85495339 -153.5174408 252.35707092 C-149.79015056 246.6840999 -146.07743656 241.00172586 -142.375 235.3125 C-141.83705811 234.48782227 -141.29911621 233.66314453 -140.74487305 232.81347656 C-140.25929932 232.06678711 -139.77372559 231.32009766 -139.2734375 230.55078125 C-138.85497559 229.90794189 -138.43651367 229.26510254 -138.00537109 228.6027832 C-136.94298869 226.96633514 -136.94298869 226.96633514 -136 225 C-76.6 224.67 -17.2 224.34 44 224 C35.84657627 213.62277749 35.84657627 213.62277749 27.6875 203.25 C22.83422404 197.07892643 18.01553272 190.8812007 13.19873047 184.68164062 C8.26341069 178.33216972 3.30149252 172.00408164 -1.67333984 165.68554688 C-3.95086206 162.79191173 -6.22524007 159.89580677 -8.5 157 C-9.4166523 155.83332204 -10.33331895 154.66665536 -11.25 153.5 C-16.75 146.5 -22.25 139.5 -27.75 132.5 C-28.20455566 131.92161377 -28.65911133 131.34322754 -29.12744141 130.74731445 C-30.03651739 129.59002935 -30.94505347 128.43231992 -31.85302734 127.27416992 C-34.25638907 124.21012138 -36.67092281 121.1557507 -39.1015625 118.11328125 C-39.60751953 117.47712891 -40.11347656 116.84097656 -40.63476562 116.18554688 C-41.60660184 114.96406466 -42.58171444 113.74517989 -43.56054688 112.52929688 C-45.55094991 110.02144785 -46.97838344 108.06484969 -48 105 C-32.16 105 -16.32 105 0 105 C0 70.35 0 35.7 0 0 Z " fill="#D2975A" transform="translate(209,0)"/>
<path d="M0 0 C3.50944571 3.50944571 5.91670568 6.81845315 8.4375 11 C9.32777081 12.4502368 10.21977924 13.89940797 11.11328125 15.34765625 C11.58330566 16.10965332 12.05333008 16.87165039 12.53759766 17.65673828 C15.01098418 21.61993759 17.56879095 25.52740483 20.125 29.4375 C25.12581225 37.09819163 30.07606536 44.78967551 35 52.5 C39.80341393 60.01979981 44.62687318 67.52518351 49.5 75 C54.23788216 82.27581872 58.96150849 89.56075055 63.65698242 96.86401367 C64.73070122 98.53251081 65.80770411 100.19889309 66.88476562 101.86523438 C67.53638672 102.88037109 68.18800781 103.89550781 68.859375 104.94140625 C69.73287598 106.29794312 69.73287598 106.29794312 70.62402344 107.68188477 C72 110 72 110 73 113 C109.3 113 145.6 113 183 113 C183 169.76 183 226.52 183 285 C122.61 285 62.22 285 0 285 C0 190.95 0 96.9 0 0 Z " fill="#BE7C48" transform="translate(256,227)"/>
<path d="M0 0 C31.02 0 62.04 0 94 0 C94 34.65 94 69.3 94 105 C109.84 105 125.68 105 142 105 C140.05703143 108.88593714 137.75753556 112.01553739 135.0625 115.375 C134.06370814 116.6327379 133.06501289 117.89055253 132.06640625 119.1484375 C131.55609863 119.7887793 131.04579102 120.42912109 130.52001953 121.08886719 C128.16616484 124.04838767 125.83357946 127.0244865 123.5 130 C122.58344852 131.16675716 121.6667815 132.33342357 120.75 133.5 C120.29625 134.0775 119.8425 134.655 119.375 135.25 C104.25 154.5 104.25 154.5 102.87573242 156.24902344 C101.95656687 157.41890016 101.03745905 158.58882223 100.1184082 159.75878906 C97.86543906 162.62671157 95.61156277 165.4939099 93.35546875 168.359375 C88.21573608 174.88985886 83.09879658 181.43749359 78 188 C68.57916667 200.12526882 68.57916667 200.12526882 63.98803711 205.92236328 C61.62309404 208.91155306 59.29863144 211.92418585 57.015625 214.9765625 C56.27445435 215.95447754 56.27445435 215.95447754 55.51831055 216.95214844 C54.56938792 218.20549651 53.63020266 219.46629523 52.70239258 220.73535156 C51.41015625 222.4296875 51.41015625 222.4296875 49 225 C45 225 45 225 43.51123047 223.73754883 C43.05119629 223.14997803 42.59116211 222.56240723 42.1171875 221.95703125 C41.59519775 221.30234863 41.07320801 220.64766602 40.53540039 219.97314453 C39.98746826 219.26013184 39.43953613 218.54711914 38.875 217.8125 C38.29806396 217.08144043 37.72112793 216.35038086 37.12670898 215.59716797 C35.40462032 213.40801967 33.70007766 211.20626619 32 209 C31.13946121 207.89181968 30.27879835 206.78373569 29.41796875 205.67578125 C27.39857207 203.06027743 25.39134053 200.43590757 23.38671875 197.80908203 C20.63010177 194.21286164 17.8451509 190.63858852 15.0625 187.0625 C14.46405273 186.29341309 13.86560547 185.52432617 13.24902344 184.73193359 C8.29351279 178.36845432 3.31600577 172.02251493 -1.67333984 165.68554688 C-3.95086206 162.79191173 -6.22524007 159.89580677 -8.5 157 C-9.4166523 155.83332204 -10.33331895 154.66665536 -11.25 153.5 C-16.75 146.5 -22.25 139.5 -27.75 132.5 C-28.20455566 131.92161377 -28.65911133 131.34322754 -29.12744141 130.74731445 C-30.03651739 129.59002935 -30.94505347 128.43231992 -31.85302734 127.27416992 C-34.25638907 124.21012138 -36.67092281 121.1557507 -39.1015625 118.11328125 C-39.60751953 117.47712891 -40.11347656 116.84097656 -40.63476562 116.18554688 C-41.60660184 114.96406466 -42.58171444 113.74517989 -43.56054688 112.52929688 C-45.55094991 110.02144785 -46.97838344 108.06484969 -48 105 C-32.16 105 -16.32 105 0 105 C0 70.35 0 35.7 0 0 Z " fill="#EF3B4E" transform="translate(209,0)"/>
<path d="M0 0 C1.10550794 -0.01821522 1.10550794 -0.01821522 2.23334938 -0.03679842 C4.72201031 -0.07614889 7.21070687 -0.10796252 9.69947815 -0.13951111 C11.47648427 -0.16540338 13.25348719 -0.1915163 15.03048706 -0.21783447 C31.28319708 -0.44908497 47.53721396 -0.57929612 63.79118252 -0.6832056 C74.72163316 -0.75465068 85.65007603 -0.85624177 96.57936096 -1.03404236 C106.11075834 -1.18909092 115.64075949 -1.28770101 125.17340046 -1.31816572 C130.21896969 -1.3361351 135.26080274 -1.38163658 140.30521965 -1.49432564 C145.05821825 -1.5994496 149.80574814 -1.62834537 154.55976677 -1.60009575 C156.2990141 -1.60288958 158.0384751 -1.63288335 159.77669144 -1.69282532 C170.46759643 -2.04267172 170.46759643 -2.04267172 175.03761292 0.22792053 C179.1830559 4.11068754 181.61385357 9.13096578 184.01948178 14.20037758 C185.61336065 17.37448526 187.58828703 20.20882773 189.60011292 23.13417053 C190.32851379 24.21835266 191.05691467 25.30253479 191.80738831 26.41957092 C192.54336243 27.51132629 193.27933655 28.60308167 194.03761292 29.72792053 C199.2173818 37.44530758 204.34171621 45.18147947 209.21266174 53.09877014 C213.10619564 59.40130019 217.1641504 65.59491424 221.22511292 71.79042053 C221.94851868 72.8941803 222.67192444 73.99794006 223.41725159 75.13514709 C224.88869791 77.37927575 226.36076293 79.6229976 227.83302307 81.86659241 C231.36689747 87.25306955 234.89059818 92.64618376 238.41261292 98.04042053 C239.03676086 98.99440735 239.66090881 99.94839417 240.30397034 100.93128967 C240.88380676 101.81937317 241.46364319 102.70745667 242.06105042 103.62245178 C242.56555725 104.39435852 243.07006409 105.16626526 243.58985901 105.96156311 C248.03761292 112.92421058 248.03761292 112.92421058 248.03761292 115.22792053 C224.45528027 115.8132931 200.87404345 116.2534223 177.2858963 116.52322483 C166.33167963 116.65186452 155.38198894 116.82702656 144.43067932 117.11390686 C134.87910809 117.36399921 125.33081391 117.52457426 115.77605963 117.5801329 C110.71995827 117.61259673 105.67322552 117.68814266 100.62014771 117.87117195 C69.00785697 118.97255541 69.00785697 118.97255541 61.81465149 112.79983139 C56.41059173 107.25456414 53.21267162 100.37210063 50.33676147 93.25913811 C48.46487216 88.89158233 45.92348019 85.11809438 43.22511292 81.22792053 C42.34333484 79.87646803 41.46516163 78.52264923 40.59230042 77.16542053 C39.74082485 75.85286413 38.88926303 74.54036368 38.03761292 73.22792053 C31.01749469 62.40950349 24.04656709 51.56075185 17.10377502 40.69252014 C12.23744226 33.08217595 7.33235522 25.49817473 2.3740387 17.94740295 C-1.215727 12.45776956 -4.62205172 6.87257114 -7.96238708 1.22792053 C-6.06086942 -0.67359713 -2.59072945 0.02967936 0 0 Z " fill="#D1975A" transform="translate(263.96238708496094,224.77207946777344)"/>
<path d="M0 0 C60.06 0 120.12 0 182 0 C182 3.29298945 181.55811705 4.06243263 179.83203125 6.74609375 C179.35797852 7.49004395 178.88392578 8.23399414 178.39550781 9.00048828 C177.61191895 10.20680908 177.61191895 10.20680908 176.8125 11.4375 C176.27077148 12.28296387 175.72904297 13.12842773 175.17089844 13.99951172 C173.45527262 16.67160633 171.72928794 19.33672997 170 22 C169.47647949 22.80743652 168.95295898 23.61487305 168.41357422 24.44677734 C166.32583401 27.66463333 164.23545322 30.88073654 162.13989258 34.09350586 C157.72120042 40.87109281 153.35496341 47.68132412 149 54.5 C142.55182424 64.59339882 136.04699466 74.6481864 129.50830078 84.68310547 C127.04140857 88.4724883 124.58231002 92.2668985 122.125 96.0625 C121.70887451 96.70445312 121.29274902 97.34640625 120.86401367 98.0078125 C120.45771729 98.63558594 120.0514209 99.26335937 119.6328125 99.91015625 C119.22590714 100.5071165 118.81900179 101.10407675 118.39976597 101.7191267 C116.91250062 104.01535173 116.91250062 104.01535173 115.83016109 106.76174641 C114.21380246 110.13996377 112.7399269 112.42699865 110 115 C104.15437407 116.64031833 98.43587677 116.39370742 92.40649414 116.2487793 C90.60253083 116.24567452 88.79855363 116.24742201 86.99459839 116.25364685 C82.10758156 116.25679899 77.22354372 116.19220621 72.33721852 116.11533332 C67.22711819 116.04649476 62.11694692 116.0401017 57.00645447 116.02705383 C47.33392922 115.99288521 37.66277412 115.90264876 27.99085182 115.79220945 C16.97779194 115.66919041 5.96466606 115.60876087 -5.04891002 115.55355966 C-27.70003253 115.43862897 -50.34993945 115.2451907 -73 115 C-71.39192007 110.82904268 -69.38634061 107.143528 -67 103.375 C-66.57847656 102.70404297 -66.15695313 102.03308594 -65.72265625 101.34179688 C-60.88289691 93.70677487 -55.82806381 86.21283273 -50.7963562 78.70373535 C-46.46134496 72.23278009 -42.13989903 65.76284014 -38.0625 59.125 C-33.42040555 51.56901878 -28.5554232 44.16143758 -23.6875 36.75 C-23.27607758 36.12348541 -22.86465515 35.49697083 -22.44076538 34.85147095 C-20.79997043 32.35313172 -19.15893104 29.85495339 -17.5174408 27.35707092 C-13.79015056 21.6840999 -10.07743656 16.00172586 -6.375 10.3125 C-5.83705811 9.48782227 -5.29911621 8.66314453 -4.74487305 7.81347656 C-4.25929932 7.06678711 -3.77372559 6.32009766 -3.2734375 5.55078125 C-2.85497559 4.90794189 -2.43651367 4.26510254 -2.00537109 3.6027832 C-0.94298869 1.96633514 -0.94298869 1.96633514 0 0 Z " fill="#E5B160" transform="translate(73,225)"/>
<path d="M0 0 C15.51 0 31.02 0 47 0 C47 74.58 47 149.16 47 226 C41.36655949 220.36655949 41.36655949 220.36655949 39.125 217.609375 C38.62162109 216.99126953 38.11824219 216.37316406 37.59960938 215.73632812 C37.07173828 215.08083984 36.54386719 214.42535156 36 213.75 C35.43603516 213.05326172 34.87207031 212.35652344 34.29101562 211.63867188 C29.71804566 205.95925635 25.28754404 200.17799196 20.88354492 194.3671875 C16.59497879 188.7274293 12.15740179 183.22353467 7.66845703 177.74267578 C3.49571274 172.63843626 -0.54320736 167.44742946 -4.54296875 162.20703125 C-7.1440258 158.80145877 -9.78691993 155.42960435 -12.4375 152.0625 C-12.89527832 151.48097168 -13.35305664 150.89944336 -13.82470703 150.30029297 C-14.75259621 149.1220986 -15.68065654 147.94403901 -16.60888672 146.76611328 C-18.90874242 143.84628946 -21.20412359 140.92295297 -23.5 138 C-24.41275331 136.83853608 -25.32551373 135.67707775 -26.23828125 134.515625 C-28.11188772 132.13115604 -29.98411982 129.74561605 -31.85546875 127.359375 C-32.32557373 126.7602832 -32.79567871 126.16119141 -33.2800293 125.54394531 C-34.20780285 124.36141624 -35.13506126 123.1784828 -36.06176758 121.99511719 C-39.52711256 117.57769904 -43.06068983 113.21912493 -46.63671875 108.890625 C-48 107 -48 107 -48 105 C-32.16 105 -16.32 105 0 105 C0 70.35 0 35.7 0 0 Z " fill="#FE6E49" transform="translate(209,0)"/>
<path d="M0 0 C22.44 0 44.88 0 68 0 C68 9.9 68 19.8 68 30 C45.56 30 23.12 30 0 30 C0 20.1 0 10.2 0 0 Z " fill="#D2975A" transform="translate(371,452)"/>
<path d="M0 0 C22.44 0 44.88 0 68 0 C68 9.9 68 19.8 68 30 C45.56 30 23.12 30 0 30 C0 20.1 0 10.2 0 0 Z " fill="#D2975A" transform="translate(371,392)"/>
</svg>
