<?xml version="1.0" encoding="UTF-8"?>
<svg version="1.1" xmlns="http://www.w3.org/2000/svg" width="512" height="512">
<path d="M0 0 C149.16 0 298.32 0 452 0 C452 149.16 452 298.32 452 452 C317.5625 451.75 317.5625 451.75 275.09594727 451.57714844 C262.54618406 451.58361006 262.54618406 451.58361006 249.9964447 451.60601807 C244.40133684 451.61558021 238.80753739 451.59240571 233.21263123 451.54693604 C226.75793497 451.49459194 220.30476413 451.48394277 213.84995824 451.52447928 C210.54807637 451.54391109 207.24977884 451.53813187 203.94807541 451.4921031 C190.38794612 450.56146909 190.38794612 450.56146909 178.51511955 455.64879608 C176.10949299 458.49301578 174.55531378 461.62011083 173 465 C171.54581547 466.92194748 171.54581547 466.92194748 170.171875 468.41015625 C169.37265625 469.28542969 168.5734375 470.16070312 167.75 471.0625 C146.22878183 494.2486395 115.34163622 510.55929691 83.45556641 512.18017578 C44.53751828 513.52717186 9.84803796 504.08532738 -19.21484375 477.1640625 C-38.18838492 459.02459608 -49.83234425 438.19167516 -57 413 C-57.36222656 411.75734375 -57.72445312 410.5146875 -58.09765625 409.234375 C-62.8682474 389.08694821 -61.63702468 364.80138087 -56 345 C-55.72712158 343.99960693 -55.72712158 343.99960693 -55.44873047 342.97900391 C-49.71473893 322.41554721 -38.25979275 304.66961662 -24 289 C-23.50068073 288.45033451 -23.00136146 287.90066903 -22.4869113 287.33434701 C-19.49923214 284.19083206 -16.71513204 281.6735579 -12.88349152 279.61065292 C-7.47184898 276.61608796 -2.25869854 273.50886598 -0.08362389 267.44542408 C1.41976483 259.65995939 1.06542785 251.74257992 0.90820312 243.85253906 C0.91332935 241.14747518 0.92478012 238.44311644 0.94408417 235.73818588 C0.97657613 229.2461512 0.92731041 222.75736508 0.84864947 216.26582895 C0.76115248 208.74937778 0.77673476 201.23541093 0.79199219 193.71826172 C0.7817943 173.89527149 0.63245178 154.07255035 0.5 134.25 C0.335 89.9475 0.17 45.645 0 0 Z " fill="#E5B261" transform="translate(60,0)"/>
<path d="M0 0 C53.13 0 106.26 0 161 0 C161 149.16 161 298.32 161 452 C86.42 452 11.84 452 -65 452 C-65 354.65 -65 257.3 -65 157 C-43.84478764 146.42239382 -43.84478764 146.42239382 -38 148 C-33.90030085 149.64374296 -29.89648434 151.50124947 -25.90039062 153.38085938 C-21.26617979 155.54597096 -21.26617979 155.54597096 -16.296875 155.55859375 C-13.29359406 153.52065311 -10.52950748 151.27295222 -7.8125 148.875 C-2.25929752 144 -2.25929752 144 0 144 C0 96.48 0 48.96 0 0 Z " fill="#D2985B" transform="translate(351,0)"/>
<path d="M0 0 C25.16323173 22.26878613 42.54220456 50.76517829 46.73193359 84.53271484 C47.58085788 101.9432737 48.19771057 119.81288213 42.73193359 136.53271484 C42.41844971 137.57105469 42.41844971 137.57105469 42.09863281 138.63037109 C38.85489262 149.34078814 34.17139367 158.99133128 28.71240234 168.73632812 C27.8197378 170.3718425 26.99999365 172.04662607 26.18896484 173.72412109 C12.61634841 199.88688575 -17.12335216 218.83861809 -44.5168457 227.58300781 C-78.45023924 237.83968101 -115.52982723 234.11167692 -146.95556641 217.84521484 C-178.21434615 200.75540808 -200.55237103 172.4227326 -210.82666016 138.54833984 C-211.31118898 136.87763698 -211.79201699 135.20585357 -212.26806641 133.53271484 C-212.63029297 132.29005859 -212.99251953 131.04740234 -213.36572266 129.76708984 C-218.1363138 109.61966305 -216.90509109 85.33409572 -211.26806641 65.53271484 C-210.99518799 64.53232178 -210.99518799 64.53232178 -210.71679688 63.51171875 C-203.39038641 37.23746926 -186.44026474 12.69781609 -164.51806641 -3.52978516 C-163.81270752 -4.05217773 -163.10734863 -4.57457031 -162.38061523 -5.11279297 C-148.74818345 -15.06065762 -132.91994069 -21.83379391 -116.70556641 -26.40478516 C-116.00488037 -26.60402588 -115.30419434 -26.8032666 -114.58227539 -27.00854492 C-75.67710536 -37.32845013 -30.36899852 -25.91183423 0 0 Z " fill="#83C7FE" transform="translate(215.26806640625,279.46728515625)"/>
<path d="M0 0 C0 25.08 0 50.16 0 76 C-9.24 76.33 -18.48 76.66 -28 77 C-45.12099521 81.66936233 -58.23319417 88.72690823 -68 104 C-69.88228723 107.58936156 -71.52835779 111.22443852 -73 115 C-73.36609375 115.88558594 -73.7321875 116.77117187 -74.109375 117.68359375 C-78.07169081 132.43800656 -75.27461282 149.02384759 -68.23828125 162.33203125 C-58.0482328 178.76425948 -44.29568324 185.42607919 -26 190 C-17.42 190.33 -8.84 190.66 0 191 C0 214.43 0 237.86 0 262 C-18.70680869 262 -18.70680869 262 -25.8125 260.4375 C-26.64160889 260.26186523 -27.47071777 260.08623047 -28.32495117 259.90527344 C-61.00989442 252.547838 -91.23864504 232.78483758 -109.765625 204.6015625 C-118.05502029 191.42708574 -123.74027621 177.97136327 -128 163 C-128.36222656 161.75734375 -128.72445312 160.5146875 -129.09765625 159.234375 C-133.8682474 139.08694821 -132.63702468 114.80138087 -127 95 C-126.72712158 93.99960693 -126.72712158 93.99960693 -126.44873047 92.97900391 C-119.12232001 66.70475442 -102.17219833 42.16510125 -80.25 25.9375 C-79.54464111 25.41510742 -78.83928223 24.89271484 -78.11254883 24.35449219 C-54.9442773 7.44812999 -28.33702658 0 0 0 Z " fill="#A0E1FE" transform="translate(131,250)"/>
<path d="M0 0 C42.9 0 85.8 0 130 0 C130.56424248 35.66818528 130.56424248 35.66818528 130.68359375 50.65039062 C130.76657192 60.98349622 130.86394693 71.31500012 131.05615234 81.64672852 C131.19609185 89.17259192 131.28610499 96.69715267 131.31723893 104.22428101 C131.33543007 108.20741438 131.37787605 112.18682284 131.48022079 116.16875648 C132.12650267 142.30684673 132.12650267 142.30684673 126.96588135 148.38534546 C123.61106293 151.4228875 120.16616652 153.26777245 116 155 C115.0751178 155.41670959 114.1502356 155.83341919 113.19732666 156.26275635 C110.19779059 157.26915606 108.97072361 156.55784383 106.1640625 155.19140625 C105.26429688 154.77439453 104.36453125 154.35738281 103.4375 153.92773438 C102.0453125 153.25194336 102.0453125 153.25194336 100.625 152.5625 C92.17847433 148.22200163 92.17847433 148.22200163 83 149 C79.30821904 150.60252019 75.76778364 152.46884102 72.22851562 154.38085938 C66.78735953 157.1381689 66.78735953 157.1381689 62.97265625 156.46875 C61.99167969 155.9840625 61.01070313 155.499375 60 155 C58.70942487 154.41036542 57.41767762 153.82329208 56.125 153.23828125 C54.04980468 152.27394908 51.98010535 151.30283315 49.921875 150.30273438 C45.50324403 148.27471768 42.81301307 147.49479541 38 149 C33.90593551 150.66006788 29.89745246 152.50079411 25.90039062 154.38085938 C19.74824329 157.12326551 19.74824329 157.12326551 16.296875 156.5546875 C13.30335044 154.52845829 10.53052722 152.31283405 7.8125 149.9375 C4.14127057 146.63225395 4.14127057 146.63225395 0 144 C0 96.48 0 48.96 0 0 Z " fill="#EEE1DC" transform="translate(221,0)"/>
<path d="M0 0 C21.45 0 42.9 0 65 0 C65 51.48 65 102.96 65 156 C61.42465625 155.28493125 59.31141176 154.83657739 56.22265625 153.3359375 C55.54396484 153.01882812 54.86527344 152.70171875 54.16601562 152.375 C52.76380649 151.70839733 51.36532413 151.03389808 49.97070312 150.3515625 C45.53247806 148.29862048 42.8426845 147.47748934 38 149 C33.90613597 150.66063565 29.89748465 152.50077897 25.90039062 154.38085938 C19.74824329 157.12326551 19.74824329 157.12326551 16.296875 156.5546875 C13.30335044 154.52845829 10.53052722 152.31283405 7.8125 149.9375 C4.14127057 146.63225395 4.14127057 146.63225395 0 144 C0 96.48 0 48.96 0 0 Z " fill="#FEF4F4" transform="translate(221,0)"/>
<path d="M0 0 C36.63 0 73.26 0 111 0 C111 25.74 111 51.48 111 78 C74.37 78 37.74 78 0 78 C0 52.26 0 26.52 0 0 Z " fill="#EEE1DC" transform="translate(351,323)"/>
<path d="M0 0 C0 37.95 0 75.9 0 115 C-25.23184473 115 -42.44770932 114.89156844 -60.61328125 97.6328125 C-73.15037084 83.80302791 -77.07273586 68.64000502 -76.4453125 50.2265625 C-76.00942828 43.43017782 -74.28889242 38.01015874 -71 32 C-70.49210937 31.05125 -69.98421875 30.1025 -69.4609375 29.125 C-61.46991652 15.49103056 -49.53476375 5.55748779 -34.15625 1.5078125 C-33.4446875 1.34023438 -32.733125 1.17265625 -32 1 C-21.64676174 -1.58830957 -10.67187373 0 0 0 Z " fill="#83C8FF" transform="translate(131,326)"/>
<path d="M0 0 C3.5912427 1.52734812 5.92657728 3.65645534 8.69262695 6.38623047 C9.61650711 7.29412323 10.54038727 8.20201599 11.49226379 9.13742065 C12.49141351 10.13019621 13.49007458 11.12346374 14.48828125 12.1171875 C15.51621596 13.13615389 16.54422712 14.15504316 17.5723114 15.17385864 C19.72193717 17.30701987 21.86715258 19.44451347 24.01000977 21.58447266 C26.76021097 24.32927152 29.52623026 27.05752365 32.29641438 29.7821331 C34.42288906 31.87892175 36.53807743 33.98681872 38.65025902 36.09799576 C39.66570331 37.10922624 40.68528095 38.11632337 41.70897865 39.11919785 C43.13581727 40.51928434 44.54554203 41.93674816 45.9543457 43.35498047 C46.76168655 44.15725067 47.5690274 44.95952087 48.40083313 45.78610229 C50 48 50 48 49.82681274 50.19308472 C48.90387459 52.21007233 47.9193718 53.45357431 46.34765625 55.015625 C45.81849609 55.54414063 45.28933594 56.07265625 44.74414062 56.6171875 C44.18919922 57.15601563 43.63425781 57.69484375 43.0625 58.25 C42.23588867 59.08144531 42.23588867 59.08144531 41.39257812 59.9296875 C37.26712592 64 37.26712592 64 35 64 C34.73533936 64.59514404 34.47067871 65.19028809 34.19799805 65.8034668 C32.95611649 68.08046055 31.74365193 69.4102915 29.83203125 71.14453125 C29.19265625 71.73226318 28.55328125 72.31999512 27.89453125 72.92553711 C27.20746094 73.54823486 26.52039063 74.17093262 25.8125 74.8125 C17.65003718 82.32559106 9.79292584 90.10630357 2 98 C-3.06623768 93.76183463 -7.80038069 89.32591037 -12.4375 84.625 C-13.07365234 83.98433594 -13.70980469 83.34367187 -14.36523438 82.68359375 C-15.91250332 81.12469121 -17.45736492 79.56348584 -19 78 C-16.62310673 72.95025787 -13.00224749 69.87314273 -9 66 C-14.94 65.67 -20.88 65.34 -27 65 C-27 55.1 -27 45.2 -27 35 C-17.1 34.505 -17.1 34.505 -7 34 C-10.98089289 30.21670909 -10.98089289 30.21670909 -14.98852539 26.46191406 C-16.47265625 25.015625 -16.47265625 25.015625 -19 22 C-18.81992016 18.15568684 -16.61394078 16.26539657 -13.96484375 13.671875 C-13.15595703 12.87265625 -12.34707031 12.0734375 -11.51367188 11.25 C-10.66353516 10.425 -9.81339844 9.6 -8.9375 8.75 C-8.08349609 7.90953125 -7.22949219 7.0690625 -6.34960938 6.203125 C-4.23964588 4.12852403 -2.12300292 2.06124168 0 0 Z " fill="#79ADF3" transform="translate(158,291)"/>
<path d="M0 0 C0 18.15 0 36.3 0 55 C-28.94285714 55 -28.94285714 55 -39 47 C-45.45476927 39.66666492 -46.53123922 32.31736749 -46.37109375 22.69921875 C-45.55297237 14.54384034 -41.27793448 9.72189305 -35.2578125 4.5078125 C-23.50211647 -3.34287724 -16.34132457 0 0 0 Z " fill="#9FE1FF" transform="translate(131,356)"/>
<path d="M0 0 C21.78 0 43.56 0 66 0 C66 9.9 66 19.8 66 30 C44.22 30 22.44 30 0 30 C0 20.1 0 10.2 0 0 Z " fill="#79ADF3" transform="translate(131,411)"/>
</svg>
